<svg width="32" height="32" viewBox="0 0 32 32" fill="none" xmlns="http://www.w3.org/2000/svg">
<g clip-path="url(#clip0_1240_208)">
<path d="M23.2046 25.6409H7.48535C6.79639 25.6409 6.23779 25.0825 6.23779 24.3933C6.23779 23.7043 6.79639 23.1458 7.48535 23.1458H23.2046C23.8926 23.1458 24.4521 22.5862 24.4521 21.8982V9.04834C24.4521 8.35938 25.0107 7.80078 25.6997 7.80078C26.3889 7.80078 26.9473 8.35938 26.9473 9.04834V21.8982C26.9473 23.9619 25.2683 25.6409 23.2046 25.6409ZM30.7524 12.791C30.0635 12.791 29.5049 13.3496 29.5049 14.0386V26.8884C29.5049 27.5764 28.9453 28.1362 28.2573 28.1362H12.5381C11.8489 28.1362 11.2905 28.6946 11.2905 29.3838C11.2905 30.0728 11.8489 30.6313 12.5381 30.6313H28.2573C30.321 30.6313 32 28.9521 32 26.8884V14.0386C32 13.3496 31.4414 12.791 30.7524 12.791ZM18.2356 20.2764H3.72144C1.66943 20.2764 0 18.6069 0 16.5549V5.03394C0 2.98193 1.66943 1.3125 3.72144 1.3125H18.2356C20.2876 1.3125 21.957 2.98193 21.957 5.03394V16.5549C21.957 18.6069 20.2876 20.2764 18.2356 20.2764ZM2.49512 5.03394V15.012L5.90259 11.321C6.13525 11.0691 6.46167 10.9238 6.80469 10.9197C7.14868 10.9167 7.47729 11.0532 7.71582 11.2998L9.23682 12.8713L15.0603 6.05469C15.2976 5.77734 15.644 5.61768 16.009 5.61768H16.0139C16.3806 5.61914 16.728 5.78174 16.9639 6.06226L19.4619 9.03345V5.03394C19.4619 4.35791 18.9119 3.80762 18.2356 3.80762H3.72144C3.04541 3.80762 2.49512 4.35791 2.49512 5.03394ZM3.72144 17.7812H18.2356C18.9119 17.7812 19.4619 17.2312 19.4619 16.5549V12.9106L16.0015 8.79468L10.2429 15.5352C10.0146 15.8025 9.68433 15.9609 9.33301 15.9719C8.98145 15.9827 8.64233 15.845 8.39795 15.5925L6.84082 13.9834L3.37988 17.7319C3.48853 17.7637 3.60278 17.7812 3.72144 17.7812ZM7.4231 8.48706C8.11206 8.48706 8.67065 7.92847 8.67065 7.2395C8.67065 6.55029 8.11206 5.99194 7.4231 5.99194C6.73389 5.99194 6.17554 6.55029 6.17554 7.2395C6.17554 7.92847 6.73389 8.48706 7.4231 8.48706Z" fill="#02ACD1"/>
</g>
<defs>
<clipPath id="clip0_1240_208">
<rect width="32" height="32" fill="white"/>
</clipPath>
</defs>
</svg>
