<svg width="32" height="32" viewBox="0 0 32 32" fill="none" xmlns="http://www.w3.org/2000/svg">
<path d="M6.625 22.5625C5.07419 22.5625 3.8125 23.8242 3.8125 25.375C3.8125 26.9258 5.07419 28.1875 6.625 28.1875C8.17581 28.1875 9.4375 26.9258 9.4375 25.375C9.4375 23.8242 8.17581 22.5625 6.625 22.5625ZM6.625 26.3125C6.10806 26.3125 5.6875 25.8919 5.6875 25.375C5.6875 24.8581 6.10806 24.4375 6.625 24.4375C7.14194 24.4375 7.5625 24.8581 7.5625 25.375C7.5625 25.8919 7.14194 26.3125 6.625 26.3125Z" fill="#02ACD1"/>
<path d="M30.3079 19.046C30.9475 18.1805 31.0653 16.9736 30.4837 15.9664L26.7357 9.412C26.0873 8.289 24.7201 7.77656 23.5004 8.10256C23.7601 6.93525 23.2506 5.68294 22.1615 5.05412L15.6667 1.30438C14.7391 0.76875 13.6301 0.823625 12.7771 1.35119C12.2828 0.541625 11.391 0 10.375 0H2.8125C1.26169 0 0 1.26169 0 2.8125C0 3.46281 0 28.4389 0 29.1875C0 30.7383 1.26169 32 2.8125 32C3.54081 32 25.623 32 29.1875 32C30.7383 32 32 30.7383 32 29.1875V21.625C32 20.4723 31.3027 19.4798 30.3079 19.046ZM11.3125 29.1875C11.3125 29.7044 10.8919 30.125 10.375 30.125H2.8125C2.29556 30.125 1.875 29.7044 1.875 29.1875C1.875 28.7592 1.875 21.0989 1.875 20.6875H11.3125V29.1875ZM11.3125 18.8125H1.875V11.25H11.3125V18.8125ZM11.3125 9.375H1.875V2.8125C1.875 2.29556 2.29556 1.875 2.8125 1.875H10.375C10.8919 1.875 11.3125 2.29556 11.3125 2.8125V9.375ZM13.1875 3.723L13.4482 3.27144C13.7068 2.82362 14.2814 2.66963 14.7292 2.92819L21.224 6.67794C21.6718 6.9365 21.8258 7.51113 21.5665 7.96019L20.4832 9.84313C20.4561 9.88319 20.4317 9.92481 20.4112 9.96825L13.1875 22.5247V3.723ZM13.1875 26.2847L21.9514 11.0511L23.7634 10.0049C24.2228 9.73975 24.8529 9.90081 25.11 10.3461L28.8581 16.9005C29.1173 17.3495 28.9661 17.9251 28.5125 18.187C27.843 18.5746 13.8468 26.6774 13.1875 27.0591V26.2847ZM30.125 29.1875C30.125 29.7044 29.7044 30.125 29.1875 30.125H13.0262C13.1262 29.8431 13.1823 29.5409 13.1866 29.2262L27.9356 20.6875H29.1875C29.7044 20.6875 30.125 21.1081 30.125 21.625V29.1875Z" fill="#02ACD1"/>
</svg>
