<svg width="25" height="35" viewBox="0 0 25 35" fill="none" xmlns="http://www.w3.org/2000/svg">
<path d="M23.9286 0.579346H1.07143C0.479714 0.579346 0 1.02372 0 1.57184V29.6926C0 30.2407 0.479714 30.6851 1.07143 30.6851H12.8571V33.9934C12.8571 34.3595 13.0746 34.6958 13.423 34.8685C13.7714 35.0412 14.1941 35.0224 14.5229 34.8192L16.0714 33.8629L17.62 34.8192C17.7993 34.9299 18.0065 34.9859 18.2144 34.9859C18.3877 34.9859 18.5614 34.947 18.7199 34.8685C19.0682 34.6958 19.2857 34.3595 19.2857 33.9934V30.6851H23.9286C24.5203 30.6851 25 30.2407 25 29.6926V1.57184C25 1.02372 24.5203 0.579346 23.9286 0.579346ZM17.5239 25.9515C17.4976 25.9689 17.4712 25.986 17.4444 26.0024C17.4206 26.0169 17.3969 26.0313 17.3725 26.0451C17.3356 26.0661 17.2981 26.0861 17.2602 26.1053C17.233 26.1189 17.2053 26.1318 17.1776 26.1445C17.1565 26.1542 17.1353 26.1634 17.1139 26.1725C17.0701 26.1911 17.0256 26.2087 16.9806 26.225C16.957 26.2335 16.9334 26.242 16.9096 26.2499C16.8818 26.2591 16.8538 26.268 16.8256 26.2763C16.782 26.2891 16.7381 26.301 16.6938 26.3116C16.6712 26.3169 16.6482 26.3214 16.6254 26.3262C16.5883 26.3339 16.5511 26.3411 16.5136 26.3472C16.4954 26.3502 16.4774 26.3536 16.4592 26.3562C16.4051 26.364 16.3504 26.37 16.2955 26.3744C16.2804 26.3757 16.2651 26.3766 16.2499 26.3776C16.1908 26.3814 16.1314 26.3841 16.0714 26.3841C16.0115 26.3841 15.9521 26.3814 15.8929 26.3776C15.8777 26.3766 15.8625 26.3756 15.8474 26.3744C15.7924 26.3699 15.7378 26.364 15.6836 26.3562C15.6654 26.3536 15.6474 26.3502 15.6293 26.3472C15.5918 26.3411 15.5545 26.3339 15.5174 26.3262C15.4946 26.3214 15.4716 26.3169 15.4491 26.3116C15.4047 26.301 15.3609 26.2891 15.3173 26.2763C15.289 26.268 15.261 26.2591 15.2332 26.2499C15.2094 26.242 15.1859 26.2335 15.1624 26.225C15.1172 26.2086 15.0727 26.1911 15.0289 26.1725C15.0076 26.1633 14.9864 26.1542 14.9653 26.1445C14.9375 26.1318 14.9099 26.1189 14.8827 26.1053C14.8448 26.0861 14.8074 26.0661 14.7704 26.0451C14.7461 26.0313 14.7223 26.0169 14.6985 26.0024C14.6717 25.986 14.6453 25.9689 14.6191 25.9515C13.9854 25.531 13.5714 24.8439 13.5714 24.0684C13.5714 22.7915 14.6929 21.7526 16.0714 21.7526C17.4499 21.7526 18.5714 22.7915 18.5714 24.0684C18.5714 24.8439 18.1574 25.531 17.5239 25.9515ZM17.1429 32.139L16.6657 31.8443C16.4857 31.7332 16.2786 31.6776 16.0714 31.6776C15.8643 31.6776 15.6571 31.7332 15.4771 31.8443L15 32.139V29.6926V28.2549C15.032 28.2618 15.0646 28.2668 15.0968 28.2732C15.1246 28.2787 15.1525 28.284 15.1806 28.289C15.2273 28.2973 15.2741 28.3054 15.3212 28.3124C15.368 28.3194 15.4152 28.3254 15.4624 28.3312C15.4937 28.3349 15.5248 28.3391 15.5561 28.3422C15.6342 28.3502 15.7128 28.3564 15.792 28.3608C15.7952 28.3609 15.7985 28.3613 15.8017 28.3615C15.8911 28.3662 15.9809 28.3693 16.0715 28.3693C16.1621 28.3693 16.2519 28.3662 16.3413 28.3615C16.3446 28.3613 16.3478 28.3609 16.351 28.3608C16.4301 28.3564 16.5087 28.3502 16.5868 28.3422C16.6181 28.339 16.6492 28.3349 16.6805 28.3312C16.7278 28.3254 16.7749 28.3194 16.8217 28.3124C16.8689 28.3054 16.9156 28.2973 16.9624 28.289C16.9904 28.2839 17.0182 28.2787 17.0461 28.2732C17.0783 28.2668 17.1109 28.2619 17.1429 28.2549V29.6926V32.139ZM22.8571 28.7001H19.2857V27.1675C20.1652 26.3844 20.7143 25.2851 20.7143 24.0684C20.7143 21.697 18.6315 19.7676 16.0714 19.7676C13.5114 19.7676 11.4286 21.697 11.4286 24.0684C11.4286 25.2851 11.9776 26.3844 12.8571 27.1675V28.7001H2.14286V2.56434H22.8571V28.7001Z" fill="#02ACD1"/>
<path d="M5.35793 6.86517H9.64366C10.2354 6.86517 10.7151 6.42077 10.7151 5.87262C10.7151 5.32447 10.2354 4.88007 9.64366 4.88007H5.35793C4.76621 4.88007 4.2865 5.32447 4.2865 5.87262C4.2865 6.42077 4.76621 6.86517 5.35793 6.86517Z" fill="#02ACD1"/>
<path d="M5.35793 10.1736H19.6437C20.2354 10.1736 20.7151 9.72922 20.7151 9.18103C20.7151 8.63284 20.2354 8.18842 19.6437 8.18842H5.35793C4.76621 8.18842 4.2865 8.63284 4.2865 9.18103C4.2865 9.72922 4.76621 10.1736 5.35793 10.1736Z" fill="#02ACD1"/>
<path d="M5.35793 13.4819H19.6437C20.2354 13.4819 20.7151 13.0375 20.7151 12.4893C20.7151 11.9412 20.2354 11.4968 19.6437 11.4968H5.35793C4.76621 11.4968 4.2865 11.9412 4.2865 12.4893C4.2865 13.0375 4.76621 13.4819 5.35793 13.4819Z" fill="#02ACD1"/>
<path d="M19.6416 14.8051H15.3559C14.7641 14.8051 14.2844 15.2495 14.2844 15.7977C14.2844 16.3459 14.7641 16.7903 15.3559 16.7903H19.6416C20.2333 16.7903 20.713 16.3459 20.713 15.7977C20.713 15.2495 20.2333 14.8051 19.6416 14.8051Z" fill="#02ACD1"/>
</svg>
