<svg width="26" height="26" viewBox="0 0 26 26" fill="none" xmlns="http://www.w3.org/2000/svg">
<path d="M24.6252 15.4749C25.1448 14.7717 25.2406 13.791 24.768 12.9727L21.7227 7.64725C21.1959 6.73481 20.0851 6.31846 19.0941 6.58333C19.3051 5.63489 18.8911 4.61739 18.0062 4.10648L12.7292 1.0598C11.9755 0.624609 11.0744 0.669195 10.3814 1.09784C9.97979 0.44007 9.25519 0 8.42969 0H2.28516C1.02512 0 0 1.02512 0 2.28516C0 2.81354 0 23.1066 0 23.7148C0 24.9749 1.02512 26 2.28516 26C2.87691 26 20.8187 26 23.7148 26C24.9749 26 26 24.9749 26 23.7148V17.5703C26 16.6338 25.4334 15.8273 24.6252 15.4749ZM9.19141 23.7148C9.19141 24.1349 8.8497 24.4766 8.42969 24.4766H2.28516C1.86514 24.4766 1.52344 24.1349 1.52344 23.7148C1.52344 23.3668 1.52344 17.1428 1.52344 16.8086H9.19141V23.7148ZM9.19141 15.2852H1.52344V9.14062H9.19141V15.2852ZM9.19141 7.61719H1.52344V2.28516C1.52344 1.86514 1.86514 1.52344 2.28516 1.52344H8.42969C8.8497 1.52344 9.19141 1.86514 9.19141 2.28516V7.61719ZM10.7148 3.02494L10.9267 2.65804C11.1368 2.2942 11.6037 2.16907 11.9675 2.37915L17.2445 5.42582C17.6083 5.63591 17.7334 6.10279 17.5228 6.46765L16.6426 7.99754C16.6206 8.03009 16.6008 8.06391 16.5841 8.0992L10.7148 18.3013V3.02494ZM10.7148 21.3563L17.8355 8.97904L19.3078 8.12901C19.681 7.91355 20.193 8.04441 20.4019 8.40623L23.4472 13.7317C23.6578 14.0965 23.535 14.5642 23.1664 14.7769C22.6224 15.0918 11.2505 21.6754 10.7148 21.9855V21.3563ZM24.4766 23.7148C24.4766 24.1349 24.1349 24.4766 23.7148 24.4766H10.5838C10.665 24.2475 10.7106 24.002 10.7141 23.7463L22.6977 16.8086H23.7148C24.1349 16.8086 24.4766 17.1503 24.4766 17.5703V23.7148Z" fill="#EDF0F5"/>
</svg>
