<svg width="21" height="29" viewBox="0 0 21 29" fill="none" xmlns="http://www.w3.org/2000/svg">
<path d="M19.8265 0.148376H0.887755C0.397478 0.148376 0 0.508571 0 0.952862V23.7466C0 24.1909 0.397478 24.5511 0.887755 24.5511H10.6531V27.2327C10.6531 27.5294 10.8333 27.802 11.1219 27.9421C11.4106 28.082 11.7609 28.0667 12.0332 27.9021L13.3163 27.1269L14.5994 27.902C14.748 27.9918 14.9197 28.0372 15.0919 28.0372C15.2355 28.0372 15.3795 28.0057 15.5107 27.9421C15.7994 27.8021 15.9796 27.5295 15.9796 27.2327V24.5511H19.8265C20.3168 24.5511 20.7143 24.1909 20.7143 23.7466V0.952862C20.7143 0.508571 20.3168 0.148376 19.8265 0.148376ZM14.5198 20.7142C14.4981 20.7283 14.4762 20.7422 14.454 20.7554C14.4343 20.7672 14.4145 20.7789 14.3944 20.7901C14.3638 20.8071 14.3328 20.8233 14.3013 20.8388C14.2788 20.8499 14.2558 20.8603 14.2329 20.8706C14.2154 20.8785 14.1978 20.886 14.1801 20.8933C14.1438 20.9084 14.107 20.9227 14.0696 20.9359C14.0501 20.9428 14.0306 20.9497 14.0109 20.9561C13.9878 20.9635 13.9646 20.9708 13.9412 20.9775C13.9051 20.9878 13.8688 20.9975 13.832 21.0061C13.8133 21.0104 13.7942 21.014 13.7753 21.0179C13.7446 21.0242 13.7138 21.03 13.6827 21.0349C13.6676 21.0374 13.6527 21.0401 13.6376 21.0423C13.5928 21.0485 13.5475 21.0534 13.502 21.057C13.4894 21.058 13.4768 21.0588 13.4642 21.0596C13.4152 21.0627 13.366 21.0649 13.3163 21.0649C13.2667 21.0649 13.2175 21.0627 13.1684 21.0596C13.1558 21.0588 13.1432 21.058 13.1307 21.057C13.0852 21.0534 13.0399 21.0485 12.995 21.0423C12.9799 21.0401 12.965 21.0374 12.95 21.035C12.9189 21.03 12.888 21.0242 12.8573 21.0179C12.8384 21.014 12.8194 21.0104 12.8007 21.0061C12.7639 20.9975 12.7276 20.9878 12.6915 20.9775C12.668 20.9708 12.6448 20.9635 12.6218 20.9561C12.6021 20.9497 12.5826 20.9428 12.5631 20.9359C12.5257 20.9226 12.4888 20.9084 12.4525 20.8933C12.4348 20.8859 12.4173 20.8785 12.3998 20.8706C12.3768 20.8603 12.3539 20.8499 12.3314 20.8388C12.3 20.8233 12.269 20.8071 12.2384 20.7901C12.2182 20.7789 12.1985 20.7672 12.1788 20.7554C12.1566 20.7421 12.1347 20.7283 12.1129 20.7142C11.5879 20.3734 11.2449 19.8164 11.2449 19.1879C11.2449 18.1528 12.1741 17.3107 13.3163 17.3107C14.4585 17.3107 15.3878 18.1528 15.3878 19.1879C15.3878 19.8164 15.0447 20.3734 14.5198 20.7142ZM14.2041 25.7296L13.8087 25.4907C13.6596 25.4006 13.488 25.3556 13.3163 25.3556C13.1447 25.3556 12.973 25.4006 12.8239 25.4907L12.4286 25.7296V23.7466V22.5812C12.4551 22.5869 12.4821 22.5909 12.5088 22.5961C12.5319 22.6005 12.5549 22.6048 12.5782 22.6089C12.6169 22.6157 12.6557 22.6222 12.6947 22.6278C12.7335 22.6336 12.7726 22.6384 12.8117 22.6431C12.8377 22.6461 12.8634 22.6495 12.8894 22.652C12.9541 22.6585 13.0192 22.6636 13.0848 22.6671C13.0875 22.6672 13.0902 22.6675 13.0929 22.6676C13.1669 22.6715 13.2413 22.674 13.3164 22.674C13.3915 22.674 13.4659 22.6715 13.5399 22.6676C13.5427 22.6675 13.5453 22.6672 13.548 22.6671C13.6136 22.6636 13.6787 22.6585 13.7433 22.652C13.7693 22.6495 13.7951 22.6461 13.821 22.6431C13.8602 22.6384 13.8992 22.6336 13.938 22.6278C13.9771 22.6222 14.0158 22.6157 14.0545 22.6089C14.0777 22.6048 14.1008 22.6005 14.1239 22.5961C14.1506 22.5909 14.1776 22.5869 14.2041 22.5812V23.7466V25.7296ZM18.9388 22.9421H15.9796V21.6998C16.7083 21.0651 17.1633 20.174 17.1633 19.1879C17.1633 17.2656 15.4375 15.7018 13.3163 15.7018C11.1951 15.7018 9.46939 17.2656 9.46939 19.1879C9.46939 20.174 9.92434 21.0651 10.6531 21.6998V22.9421H1.77551V1.75735H18.9388V22.9421Z" fill="#EDF0F5"/>
<path d="M4.43939 5.2435H7.99042C8.4807 5.2435 8.87817 4.88328 8.87817 4.43895C8.87817 3.99462 8.4807 3.6344 7.99042 3.6344H4.43939C3.94911 3.6344 3.55164 3.99462 3.55164 4.43895C3.55164 4.88328 3.94911 5.2435 4.43939 5.2435Z" fill="#EDF0F5"/>
<path d="M4.43939 7.92505H16.2762C16.7664 7.92505 17.1639 7.56485 17.1639 7.12056C17.1639 6.67627 16.7664 6.31607 16.2762 6.31607H4.43939C3.94911 6.31607 3.55164 6.67627 3.55164 7.12056C3.55164 7.56485 3.94911 7.92505 4.43939 7.92505Z" fill="#EDF0F5"/>
<path d="M4.43939 10.6068H16.2762C16.7664 10.6068 17.1639 10.2465 17.1639 9.80222C17.1639 9.3579 16.7664 8.99768 16.2762 8.99768H4.43939C3.94911 8.99768 3.55164 9.3579 3.55164 9.80222C3.55164 10.2465 3.94911 10.6068 4.43939 10.6068Z" fill="#EDF0F5"/>
<path d="M16.2745 11.6793H12.7234C12.2332 11.6793 11.8357 12.0395 11.8357 12.4839C11.8357 12.9282 12.2332 13.2884 12.7234 13.2884H16.2745C16.7648 13.2884 17.1622 12.9282 17.1622 12.4839C17.1622 12.0395 16.7648 11.6793 16.2745 11.6793Z" fill="#EDF0F5"/>
</svg>
