<svg width="27" height="27" viewBox="0 0 27 27" fill="none" xmlns="http://www.w3.org/2000/svg">
<g clip-path="url(#clip0_1276_231)">
<path d="M19.5789 21.6345H6.31577C5.73445 21.6345 5.26314 21.1634 5.26314 20.5819C5.26314 20.0005 5.73445 19.5292 6.31577 19.5292H19.5789C20.1594 19.5292 20.6315 19.0571 20.6315 18.4766V7.63454C20.6315 7.05322 21.1028 6.58191 21.6841 6.58191C22.2656 6.58191 22.7368 7.05322 22.7368 7.63454V18.4766C22.7368 20.2179 21.3201 21.6345 19.5789 21.6345ZM25.9474 10.7924C25.3661 10.7924 24.8947 11.2637 24.8947 11.845V22.6871C24.8947 23.2676 24.4226 23.7399 23.8421 23.7399H10.579C9.99749 23.7399 9.52638 24.2111 9.52638 24.7926C9.52638 25.3739 9.99749 25.8452 10.579 25.8452H23.8421C25.5834 25.8452 27 24.4284 27 22.6871V11.845C27 11.2637 26.5287 10.7924 25.9474 10.7924ZM15.3863 17.1082H3.13996C1.40858 17.1082 0 15.6996 0 13.9682V4.24738C0 2.51601 1.40858 1.10742 3.13996 1.10742H15.3863C17.1177 1.10742 18.5262 2.51601 18.5262 4.24738V13.9682C18.5262 15.6996 17.1177 17.1082 15.3863 17.1082ZM2.10526 4.24738V12.6663L4.98031 9.55213C5.17662 9.33955 5.45203 9.21698 5.74146 9.21348C6.0317 9.21101 6.30897 9.32616 6.51022 9.53421L7.79356 10.8602L12.7071 5.10864C12.9074 4.87463 13.1997 4.73991 13.5076 4.73991H13.5117C13.8211 4.74115 14.1143 4.87834 14.3133 5.11503L16.421 7.62197V4.24738C16.421 3.67699 15.9569 3.21268 15.3863 3.21268H3.13996C2.56956 3.21268 2.10526 3.67699 2.10526 4.24738ZM3.13996 15.0029H15.3863C15.9569 15.0029 16.421 14.5388 16.421 13.9682V10.8934L13.5012 7.42051L8.64246 13.1078C8.44986 13.3334 8.17115 13.467 7.87473 13.4763C7.57809 13.4854 7.29197 13.3692 7.08577 13.1562L5.77194 11.7985L2.85178 14.9613C2.94344 14.9881 3.03985 15.0029 3.13996 15.0029ZM6.26324 7.16096C6.84455 7.16096 7.31586 6.68964 7.31586 6.10833C7.31586 5.52681 6.84455 5.0557 6.26324 5.0557C5.68172 5.0557 5.21061 5.52681 5.21061 6.10833C5.21061 6.68964 5.68172 7.16096 6.26324 7.16096Z" fill="#EDF0F5"/>
</g>
<defs>
<clipPath id="clip0_1276_231">
<rect width="27" height="27" fill="white"/>
</clipPath>
</defs>
</svg>
