<svg width="40" height="44" viewBox="0 0 40 44" fill="none" xmlns="http://www.w3.org/2000/svg">
<path d="M29.2209 26.7897C30.2341 25.1433 30.8194 23.2068 30.8194 21.1359V18.1981H33.3995V10.4596H30.8093C30.6294 6.54569 28.0005 3.21776 24.2994 2.10985V0H15.7009V2.10977C11.9997 3.21776 9.37087 6.5456 9.191 10.4596H6.60076V18.1981H9.18095V21.1359C9.18095 23.2068 9.76627 25.1434 10.7795 26.7897L0.580322 29.6926V44H39.4199V29.6926L29.2209 26.7897ZM20.0001 34.5373C17.6197 34.5373 15.991 33.4551 15.021 31.229C14.931 31.0226 14.8515 30.8153 14.7805 30.6098C16.3292 31.4664 18.1087 31.9549 20.0002 31.9549C21.8918 31.9549 23.6712 31.4664 25.2199 30.6098C25.1488 30.8152 25.0694 31.0225 24.9794 31.2289C24.0094 33.4551 22.3806 34.5373 20.0001 34.5373ZM12.6227 32.1781C13.2225 33.5865 14.061 34.7188 15.1148 35.5436C16.1372 36.3437 17.3433 36.8401 18.7111 37.0284V41.4219H8.31882V30.1706L11.7866 29.1836C11.9181 30.0279 12.1638 31.1005 12.6227 32.1781ZM21.2892 37.0283C22.657 36.84 23.863 36.3437 24.8854 35.5435C25.9393 34.7188 26.7779 33.5864 27.3776 32.178C27.8366 31.1004 28.0822 30.0278 28.2137 29.1835L31.6814 30.1705V41.4219H21.2892V37.0283ZM28.2259 10.4596H24.2994V4.85031C26.5259 5.82166 28.0662 7.96718 28.2259 10.4596ZM21.7214 2.57812V10.4596H18.2791V2.57812H21.7214ZM15.7009 4.85031V10.4596H11.7744C11.9341 7.96709 13.4745 5.82158 15.7009 4.85031ZM9.17888 13.0378H30.8214V15.62H9.17888V13.0378ZM28.2413 18.1981V21.1359C28.2413 25.68 24.5443 29.377 20.0002 29.377C15.4561 29.377 11.7592 25.68 11.7592 21.1359V18.1981H28.2413ZM3.15845 31.6394L5.7407 30.9044V41.4219H3.15845V31.6394ZM36.8418 41.4219H34.2596V30.9043L36.8418 31.6393V41.4219Z" fill="#02ACD1"/>
</svg>
