<svg width="44" height="44" viewBox="0 0 44 44" fill="none" xmlns="http://www.w3.org/2000/svg">
<path d="M15.4969 8.1859C14.6823 7.97604 13.8865 8.59221 13.8865 9.43423V12.9766H11.3084V9.43423C11.3084 8.59324 10.5134 7.9757 9.69797 8.1859C4.57437 9.50461 0.99585 14.125 0.99585 19.4219C0.99585 20.1338 1.57301 20.7109 2.28491 20.7109H6.1521C6.1521 22.2465 6.1521 36.941 6.1521 37.4688C6.1521 37.8069 6.28496 38.1316 6.52215 38.3727L11.6784 43.6149C11.9207 43.8613 12.2519 44 12.5974 44C12.943 44 13.2741 43.8612 13.5164 43.6149L18.6727 38.3727C18.9099 38.1316 19.0427 37.807 19.0427 37.4688C19.0427 36.8689 19.0427 21.9998 19.0427 20.7109H22.9099C23.6218 20.7109 24.199 20.1338 24.199 19.4219C24.199 14.125 20.6205 9.50461 15.4969 8.1859ZM12.5974 40.8727L8.73022 36.941V34.9603L16.022 37.3909L12.5974 40.8727ZM16.4646 26.6553V29.1303L8.73022 26.9205V24.4455L16.4646 26.6553ZM8.73022 21.7643V20.7109H16.4646V23.9741L8.73022 21.7643ZM16.4647 34.8209L8.73031 32.2427V29.6018L16.4647 31.8116V34.8209ZM3.66576 18.1328C4.09613 15.1316 6.00936 12.5517 8.73022 11.2644V14.2656C8.73022 14.9775 9.30738 15.5547 10.0193 15.5547H15.1755C15.8874 15.5547 16.4646 14.9775 16.4646 14.2656V11.2644C19.1856 12.5517 21.0987 15.1316 21.5291 18.1328H3.66576Z" fill="#02ACD1"/>
<path d="M40.4229 0H23.4439C21.1532 0 20.0015 2.77423 21.6166 4.39682L26.7771 9.63755C26.7771 11.2194 26.7771 35.9258 26.7771 37.4688C26.7771 37.7442 26.8653 38.0124 27.0288 38.234L30.896 43.4762C31.1391 43.8056 31.5241 44 31.9334 44C32.3426 44 32.7277 43.8056 32.9707 43.4762L36.8379 38.234C37.0014 38.0124 37.0896 37.7442 37.0896 37.4688C37.0896 36.3506 37.0896 10.7956 37.0896 9.63755L42.2497 4.39725C43.8688 2.77157 42.7075 0 40.4229 0ZM31.9333 40.5395L29.3552 37.0446V35.2477L34.3602 37.2497L31.9333 40.5395ZM34.5114 34.5335L29.3552 32.471V30.0915L34.5114 32.154V34.5335ZM34.5114 29.3772L29.3552 27.3147V24.9353L34.5114 26.9978V29.3772ZM34.5114 24.221L29.3552 22.1585V19.779L34.5114 21.8415V24.221ZM34.5114 19.0647L29.3552 17.0022V14.6228L34.5114 16.6853V19.0647ZM34.5114 13.9085L29.3552 11.846V10.3984H34.5114V13.9085ZM40.4158 2.58517L35.2607 7.82031H28.6059L23.4508 2.58517C23.4486 2.58285 23.4462 2.58045 23.4439 2.57812H40.4229C40.4206 2.58045 40.4182 2.58285 40.4158 2.58517Z" fill="#02ACD1"/>
</svg>
