<svg width="44" height="44" viewBox="0 0 44 44" fill="none" xmlns="http://www.w3.org/2000/svg">
<path d="M43.0188 19.3737L38.7578 18.3259V14.1801C38.7578 13.4682 38.1807 12.8911 37.4688 12.8911H32.3125C31.6006 12.8911 31.0234 13.4682 31.0234 14.1801V15.4692H22.5339L19.2006 12.1359C20.8549 9.63473 20.5818 6.22498 18.3808 4.02404L14.7348 0.378055C14.2315 -0.125367 13.4153 -0.125367 12.9119 0.378055L5.6198 7.67011C5.11637 8.17353 5.11637 8.98968 5.6198 9.4931L9.26578 13.1391C11.4784 15.3518 14.8892 15.6045 17.3776 13.9588L20.7109 17.2922V18.0473H6.53125C5.81934 18.0473 5.24219 18.6245 5.24219 19.3364V20.6254H2.57812V19.3364C2.57812 18.6245 2.00097 18.0473 1.28906 18.0473C0.577156 18.0473 0 18.6245 0 19.3364V24.4926C0 25.2045 0.577156 25.7817 1.28906 25.7817C2.00097 25.7817 2.57812 25.2045 2.57812 24.4926V23.2036H5.24219V42.7114C5.24219 43.4233 5.81934 44.0004 6.53125 44.0004H16.8438C17.5557 44.0004 18.1328 43.4233 18.1328 42.7114C18.1328 41.9995 17.5557 41.4223 16.8438 41.4223H15.5547V33.5161H16.8438C18.9761 33.5161 20.7109 31.7813 20.7109 29.6489V28.3598H31.0234V29.6489C31.0234 30.3608 31.6006 30.9379 32.3125 30.9379H37.4688C38.1807 30.9379 38.7578 30.3608 38.7578 29.6489V25.5031L43.0188 24.4553C43.595 24.3137 44 23.797 44 23.2036V20.6254C44 20.032 43.595 19.5154 43.0188 19.3737ZM11.0888 11.3161L8.35433 8.58156L13.8234 3.1125L16.5579 5.84694C18.0656 7.35472 18.0657 9.80789 16.5582 11.3157C16.5581 11.3157 16.558 11.3158 16.5579 11.3159C16.5578 11.316 16.5578 11.3161 16.5577 11.3162C15.0496 12.8239 12.5965 12.8238 11.0888 11.3161ZM18.1328 29.6489C18.1328 30.3597 17.5545 30.9379 16.8438 30.9379H15.5547V28.3598H18.1328V29.6489ZM14.2656 25.7817C13.5537 25.7817 12.9766 26.3589 12.9766 27.0708V41.4223H7.82031V20.6254H22C22.7119 20.6254 23.2891 20.0483 23.2891 19.3364V18.0473H31.0234V25.7817H14.2656ZM36.1797 28.3598H33.6016C33.6016 26.4427 33.6016 17.1752 33.6016 15.4692H36.1797V28.3598ZM41.4219 22.1931L38.7578 22.8482V20.9809L41.4219 21.636V22.1931Z" fill="#02ACD1"/>
</svg>
