<svg width="57" height="38" viewBox="0 0 57 38" fill="none" xmlns="http://www.w3.org/2000/svg">
<path d="M57 20.5683C57 17.4102 54.4312 14.8414 51.2736 14.8414H49.1601L43.4149 4.1361H37.3649V0.111328H0V32.6531H5.34245C6.07217 35.231 8.44485 37.1262 11.2533 37.1262C14.0617 37.1262 16.4344 35.231 17.1641 32.6531H39.2162C39.9455 35.231 42.3182 37.1262 45.127 37.1262C47.9355 37.1262 50.3081 35.231 51.0374 32.6531H57V20.5683ZM41.4171 7.47594L45.3697 14.8414H37.3649V7.47594H41.4171ZM11.2533 33.7863C9.70729 33.7863 8.45007 32.5287 8.45007 30.9831C8.45007 29.4372 9.70729 28.1795 11.2533 28.1795C12.7993 28.1795 14.0565 29.4372 14.0565 30.9831C14.0565 32.5287 12.7993 33.7863 11.2533 33.7863ZM11.2533 24.8401C8.44485 24.8401 6.07217 26.7353 5.34245 29.3132H3.33984V3.45117H34.0251V29.3132H17.1641C16.4344 26.7348 14.0617 24.8401 11.2533 24.8401ZM45.127 33.7863C43.581 33.7863 42.3234 32.5287 42.3234 30.9831C42.3234 29.4372 43.581 28.1795 45.127 28.1795C46.6726 28.1795 47.9302 29.4372 47.9302 30.9831C47.9302 32.5287 46.6726 33.7863 45.127 33.7863ZM51.0374 29.3132C50.3077 26.7353 47.935 24.8401 45.1266 24.8401C42.3182 24.8401 39.9455 26.7353 39.2162 29.3132H37.3649V18.1813H51.2731C52.5895 18.1813 53.6602 19.2519 53.6602 20.5683V21.5002H51.0996V24.8401H53.6602V29.3132H51.0374Z" fill="#02ACD1"/>
</svg>
