<svg width="16" height="20" viewBox="0 0 16 20" fill="none" xmlns="http://www.w3.org/2000/svg">
<path d="M7.99996 0C4.00601 0 0.756714 3.2493 0.756714 7.2432C0.756714 12.1998 7.23871 19.4763 7.51468 19.7836C7.7739 20.0723 8.22648 20.0718 8.48523 19.7836C8.76121 19.4763 15.2432 12.1998 15.2432 7.2432C15.2431 3.2493 11.9939 0 7.99996 0ZM7.99996 18.3488C5.81843 15.7575 2.06109 10.645 2.06109 7.24328C2.06109 3.96852 4.72523 1.30438 7.99996 1.30438C11.2747 1.30438 13.9388 3.96852 13.9388 7.24324C13.9388 10.6451 10.182 15.7566 7.99996 18.3488Z" fill="#02ACD1"/>
<path d="M7.99993 3.59863C5.99048 3.59863 4.35571 5.23344 4.35571 7.24289C4.35571 9.25235 5.99052 10.8871 7.99993 10.8871C10.0093 10.8871 11.6441 9.25235 11.6441 7.24289C11.6441 5.23344 10.0093 3.59863 7.99993 3.59863ZM7.99993 9.58277C6.7097 9.58277 5.66009 8.53313 5.66009 7.24289C5.66009 5.95266 6.70973 4.90301 7.99993 4.90301C9.29012 4.90301 10.3398 5.95266 10.3398 7.24289C10.3398 8.53313 9.29012 9.58277 7.99993 9.58277Z" fill="#02ACD1"/>
</svg>
