<svg width="19" height="18" viewBox="0 0 19 18" fill="none" xmlns="http://www.w3.org/2000/svg">
<path d="M16.2161 2.61629C12.5045 -0.871818 6.49634 -0.872376 2.78413 2.61629C-0.927602 6.1044 -0.928158 11.7506 2.78413 15.2392C6.49574 18.7273 12.5039 18.7278 16.2161 15.2392C19.9278 11.7511 19.9283 6.10492 16.2161 2.61629ZM15.8191 13.9668C15.3754 13.5939 14.9007 13.2639 14.4003 12.9795C14.731 11.9059 14.927 10.7246 14.9733 9.49654H17.7657C17.6394 11.1518 16.9627 12.7046 15.8191 13.9668ZM1.23452 9.49654H4.02691C4.07322 10.7246 4.26914 11.9059 4.59985 12.9795C4.09951 13.2639 3.62482 13.5939 3.18106 13.9668C2.03754 12.7046 1.36081 11.1518 1.23452 9.49654ZM3.1811 3.88864C3.62486 4.26156 4.09954 4.59158 4.59989 4.87599C4.26918 5.94955 4.07326 7.13091 4.02694 8.35894H1.23452C1.36081 6.70371 2.03754 5.15096 3.1811 3.88864ZM8.89487 4.99356C7.90775 4.92721 6.95597 4.69873 6.0736 4.32181C6.58677 3.07995 7.53281 1.59047 8.89487 1.22135V4.99356ZM8.89487 6.13329V8.35898H5.23795C5.27985 7.32016 5.43647 6.32264 5.69695 5.40993C6.69968 5.82187 7.77809 6.06788 8.89487 6.13329ZM8.89487 9.49654V11.7222C7.77809 11.7876 6.69968 12.0336 5.69695 12.4456C5.43647 11.5329 5.27985 10.5354 5.23795 9.49654H8.89487ZM8.89487 12.862V16.6341C7.53288 16.265 6.58685 14.7757 6.0736 13.5337C6.95597 13.1568 7.90775 12.9283 8.89487 12.862ZM10.1054 12.862C11.0925 12.9283 12.0443 13.1568 12.9266 13.5337C12.4134 14.7756 11.4674 16.265 10.1054 16.6341V12.862ZM10.1054 11.7222V9.49654H13.7623C13.7204 10.5354 13.5638 11.5329 13.3033 12.4456C12.3006 12.0336 11.2221 11.7876 10.1054 11.7222ZM10.1054 8.35898V6.13329C11.2221 6.06788 12.3006 5.82187 13.3033 5.40993C13.5638 6.32264 13.7204 7.32016 13.7623 8.35898H10.1054ZM10.1054 4.99356V1.22139C11.4674 1.59051 12.4135 3.07998 12.9266 4.32184C12.0443 4.69873 11.0925 4.92721 10.1054 4.99356ZM12.824 1.78927C13.5988 2.1081 14.3216 2.54043 14.9695 3.07684C14.6611 3.3324 14.3357 3.56412 13.9958 3.77135C13.6941 3.06914 13.3085 2.38673 12.824 1.78927ZM5.00435 3.77135C4.66452 3.56412 4.33911 3.3324 4.03065 3.07684C4.67861 2.54043 5.40143 2.1081 6.1762 1.78927C5.69165 2.3868 5.30614 3.06921 5.00435 3.77135ZM5.00439 14.0842C5.30614 14.7863 5.69172 15.4688 6.17623 16.0663C5.40147 15.7474 4.67865 15.3151 4.03069 14.7787C4.33911 14.5231 4.66456 14.2914 5.00439 14.0842ZM13.9958 14.0842C14.3357 14.2914 14.6611 14.5231 14.9695 14.7786C14.3216 15.3151 13.5988 15.7474 12.824 16.0662C13.3085 15.4688 13.6941 14.7864 13.9958 14.0842ZM14.9733 8.35898C14.927 7.13095 14.7311 5.94955 14.4004 4.87602C14.9007 4.59161 15.3754 4.26159 15.8192 3.88868C16.9627 5.15096 17.6394 6.70371 17.7657 8.35898H14.9733Z" fill="#02ACD1"/>
</svg>
