<svg width="13" height="13" viewBox="0 0 13 13" fill="none" xmlns="http://www.w3.org/2000/svg">
<path d="M11.551 12.1875C11.9077 12.1875 12.2551 12.0543 12.5202 11.8125C12.8166 11.5422 12.9866 11.1569 12.9866 10.7559V8.83378C12.9866 8.10435 12.4422 7.49289 11.7204 7.41158C11.2955 7.36368 10.8736 7.2762 10.4661 7.1516C9.95614 6.99561 9.40679 7.131 9.0327 7.50501L8.25387 8.28377C6.76235 7.46775 5.5186 6.224 4.70265 4.73277L5.48156 3.95395C5.85557 3.57986 5.99096 3.03051 5.83489 2.52044C5.7103 2.11295 5.62282 1.69103 5.57491 1.26628C5.49368 0.544361 4.88223 0 4.15279 0H2.23079C1.82962 0 1.44437 0.169973 1.17405 0.466404C0.90254 0.763951 0.768124 1.16512 0.805094 1.56688C0.931997 2.94601 1.29753 4.2776 1.89159 5.52477C2.46905 6.73727 3.24505 7.83522 4.19816 8.78833C5.15121 9.74137 6.24923 10.5175 7.46173 11.0949C8.70897 11.6889 10.0406 12.0545 11.4197 12.1815C11.4635 12.1856 11.5072 12.1875 11.551 12.1875ZM10.0423 8.04023C10.0906 8.04023 10.1396 8.04744 10.1876 8.0621C10.651 8.20388 11.1308 8.30333 11.6138 8.35778C11.8535 8.38478 12.0344 8.58942 12.0344 8.83378V10.7559C12.0344 10.892 11.979 11.0174 11.8784 11.109C11.7767 11.202 11.6448 11.2461 11.507 11.2333C6.33172 10.757 2.2296 6.65478 1.75323 1.47955C1.74051 1.34179 1.78469 1.20982 1.87745 1.10806C1.96924 1.00757 2.09466 0.952149 2.23079 0.952149H4.15279C4.39715 0.952149 4.60179 1.13298 4.62886 1.3728C4.68324 1.8558 4.78269 2.33559 4.9244 2.79902C4.97722 2.9716 4.93281 3.15615 4.80828 3.28067L3.54022 4.54874L3.69271 4.85529C4.64352 6.76636 6.21999 8.34261 8.13143 9.29364L8.43798 9.44628L9.70597 8.17821C9.79576 8.08843 9.91686 8.04023 10.0423 8.04023Z" fill="#02ACD1"/>
</svg>
