<svg width="55" height="55" viewBox="0 0 55 55" fill="none" xmlns="http://www.w3.org/2000/svg">
<g clip-path="url(#clip0_2511_482)">
<path d="M-0.00585938 42.4759C0.13765 41.8158 0.249588 41.1456 0.424669 40.4969C1.12501 38.0506 2.62857 35.9113 4.69306 34.4237C6.75755 32.9361 9.26275 32.1869 11.805 32.2968C14.3721 32.42 16.8212 33.4117 18.7508 35.1094C20.6803 36.8072 21.9758 39.1101 22.4247 41.6407C22.9276 44.5752 22.256 47.5898 20.555 50.0333C18.8539 52.4767 16.2599 54.153 13.3333 54.7001C7.21266 55.828 1.33308 51.7639 0.186438 45.6116C0.131905 45.3246 0.0601578 45.0275 -0.00298638 44.7348L-0.00585938 42.4759Z" fill="#FDBE36"/>
<path d="M54.9986 43.6111C54.9868 45.4748 54.237 47.2579 52.9134 48.5699C51.5898 49.882 49.8002 50.6161 47.9365 50.6115C46.0819 50.5915 44.3096 49.8428 43.0025 48.5271C41.6953 47.2113 40.9582 45.4342 40.9504 43.5795C40.9525 42.6519 41.138 41.7339 41.4964 40.8784C41.8547 40.0228 42.3788 39.2466 43.0384 38.5944C43.698 37.9423 44.4802 37.4271 45.3398 37.0785C46.1994 36.7299 47.1194 36.5548 48.047 36.5633C49.9015 36.5823 51.6732 37.3339 52.9755 38.6543C54.2779 39.9746 55.0051 41.7565 54.9986 43.6111Z" fill="#FDBE36"/>
<path d="M18.3133 7.00613C18.3154 7.92962 18.1348 8.84442 17.7821 9.69788C17.4293 10.5513 16.9112 11.3266 16.2577 11.9791C15.6041 12.6316 14.828 13.1484 13.974 13.4998C13.1199 13.8512 12.2048 14.0302 11.2813 14.0266C10.362 14.0272 9.45153 13.8463 8.60216 13.4945C7.75279 13.1426 6.98119 12.6266 6.33157 11.9761C5.68194 11.3255 5.16706 10.5532 4.81641 9.70329C4.46576 8.85342 4.28625 7.94272 4.28813 7.02335C4.28471 6.09935 4.46432 5.18381 4.81661 4.32959C5.16889 3.47537 5.68687 2.69939 6.34064 2.04641C6.99442 1.39344 7.77104 0.876413 8.62569 0.525176C9.48034 0.173939 10.3961 -0.00455329 11.3201 1.08442e-06C13.1758 0.00418038 14.954 0.744075 16.265 2.05744C17.5759 3.37081 18.3126 5.15045 18.3133 7.00613Z" fill="#FDBE36"/>
<path d="M40.573 7.30464C42.4378 7.31072 44.2237 8.05722 45.5381 9.37997C46.8525 10.7027 47.5877 12.4934 47.582 14.3581C47.5676 16.2144 46.8189 17.9894 45.4996 19.2952C44.1803 20.6011 42.3977 21.3316 40.5414 21.3269C39.6179 21.3243 38.7039 21.1398 37.8516 20.7839C36.9994 20.4279 36.2256 19.9076 35.5745 19.2526C34.9233 18.5976 34.4076 17.8208 34.0567 16.9664C33.7059 16.1121 33.5267 15.197 33.5296 14.2735C33.5462 12.4174 34.296 10.6433 35.6155 9.33783C36.9349 8.03238 38.7169 7.30153 40.573 7.30464Z" fill="#FDBE36"/>
<path d="M32.1404 20.5635L34.293 22.6802L22.6688 34.3045L20.5161 32.1834L32.1404 20.5635Z" fill="#FDBE36"/>
<path d="M25.77 45.1481V42.0153H37.7818V45.1481H25.77Z" fill="#FDBE36"/>
<path d="M12.8613 29.1051H9.7041V17.1939H12.8613V29.1051Z" fill="#FDBE36"/>
</g>
<defs>
<clipPath id="clip0_2511_482">
<rect width="55" height="54.8852" fill="white"/>
</clipPath>
</defs>
</svg>
