<svg width="55" height="55" viewBox="0 0 55 55" fill="none" xmlns="http://www.w3.org/2000/svg">
<path d="M0 29.2331V25.7984C0.0329994 25.6077 0.0817787 25.4198 0.0961263 25.2248C0.293418 22.3647 0.978079 19.5594 2.12057 16.9298C6.13215 7.8738 13.0061 2.3663 22.7423 0.407286C23.7639 0.202206 24.8127 0.131939 25.8486 0C25.8715 0.0833465 25.8888 0.168149 25.9002 0.253834C25.9002 5.76373 25.9036 11.2741 25.9103 16.785C25.9103 17.089 25.784 17.1621 25.51 17.2152C20.3449 18.2893 16.9014 22.6648 17.0636 27.9137C17.2745 34.8864 24.4511 39.7581 31.0037 37.3503C31.9492 37.0032 32.8301 36.4898 33.6293 36.0968L45.6884 48.1435C41.9193 51.4731 37.3005 53.6931 32.3452 54.5568C31.2748 54.7461 30.193 54.8437 29.1084 54.9871H25.7812C25.1298 54.9068 24.4755 54.8437 23.8242 54.7447C18.2932 53.9588 13.4107 51.7445 9.24701 48.023C4.51231 43.7938 1.56389 38.5434 0.430427 32.2921C0.246778 31.2868 0.142041 30.2571 0 29.2331Z" fill="#FDBE36"/>
<path d="M29.1572 0.0588379C42.9151 0.742914 54.2769 12.071 54.9828 25.8917H54.4089C49.1003 25.8917 43.7759 25.8917 38.4602 25.9017C38.0211 25.9017 37.8791 25.7899 37.77 25.3438C36.6968 20.9769 33.9564 18.2593 29.5718 17.2253C29.2576 17.1521 29.1199 17.0733 29.1199 16.7233C29.1314 11.266 29.1342 5.80967 29.1285 0.354267C29.1285 0.268219 29.1414 0.180738 29.1572 0.0588379Z" fill="#FDBE36"/>
<path d="M55 29.1614C54.5542 35.4821 52.2624 41.0039 48.1246 45.727L36.0439 33.6488C36.0798 33.5843 36.13 33.4753 36.196 33.3763C36.9977 32.2096 37.5465 30.8882 37.8073 29.497C37.8603 29.2102 37.9507 29.1069 38.2506 29.1069C43.761 29.1155 49.2719 29.1189 54.7833 29.117C54.8566 29.1261 54.929 29.141 55 29.1614Z" fill="#FDBE36"/>
</svg>
