<svg width="41" height="57" viewBox="0 0 41 57" fill="none" xmlns="http://www.w3.org/2000/svg">
<path d="M19.3929 0.00244141H21.6081C21.6922 0.0367489 21.7796 0.0620915 21.8689 0.0780538C23.4897 0.199193 25.0819 0.573624 26.588 1.18786C30.9746 2.99037 34.0693 6.10636 35.889 10.5005C36.8486 12.8176 37.1118 15.2568 37.0948 17.7422C37.0766 20.4326 37.1009 23.1229 37.0827 25.8133C37.0827 26.2828 37.2344 26.5219 37.6832 26.6536C38.2667 26.8243 38.832 27.0548 39.401 27.2695C40.4176 27.6524 40.9926 28.4244 40.9938 29.5074C41.0019 36.7264 41.0019 43.9446 40.9938 51.162C40.9938 52.2388 40.4516 53.0011 39.4617 53.3925C34.962 55.1741 30.2355 56.3109 25.4209 56.7695C21.8902 57.1043 18.3345 57.0749 14.8097 56.6817C10.2611 56.1753 5.7988 55.0681 1.53813 53.3889C0.548215 53.0011 0.00716047 52.2364 0.00594735 51.1583C-0.00133141 43.9393 -0.00133141 36.7211 0.00594735 29.5037C0.00594735 28.4207 0.582183 27.65 1.59878 27.267C2.15075 27.0585 2.7003 26.8353 3.26562 26.6743C3.75087 26.5341 3.92313 26.2719 3.91949 25.756C3.89644 22.8985 3.91221 20.0411 3.90736 17.1837C3.9025 14.3262 4.43021 11.5737 5.77921 9.03454C8.01743 4.8185 11.4045 1.98667 15.984 0.667106C17.094 0.34758 18.255 0.217085 19.3929 0.00244141ZM31.341 24.8816C31.3555 24.6962 31.3701 24.6059 31.3701 24.5157C31.3701 21.79 31.4138 19.0642 31.3495 16.3446C31.2818 13.6003 30.1823 10.9836 28.2724 9.02164C26.3624 7.05967 23.7839 5.89814 21.0561 5.77098C14.9602 5.45633 9.7983 10.2126 9.65273 16.3373C9.58722 19.0606 9.63331 21.7875 9.6321 24.5084C9.64257 24.6315 9.66163 24.7538 9.68912 24.8742C16.8266 23.3457 24.2045 23.3482 31.341 24.8816ZM20.5223 49.6655C21.8107 49.657 22.7326 48.6899 22.7423 47.274C22.7593 44.9975 22.7593 42.7173 22.7423 40.4334C22.7423 40.059 22.8637 39.8444 23.1609 39.6151C24.4953 38.5858 25.1674 37.2455 24.9587 35.5113C24.7161 33.538 23.1657 31.8709 21.2781 31.6087C19.0945 31.3038 17.1268 32.3831 16.3383 34.3186C15.5582 36.232 16.1199 38.3431 17.794 39.5761C18.1579 39.842 18.2683 40.1103 18.2647 40.5359C18.2469 42.7799 18.2469 45.0231 18.2647 47.2654C18.2647 48.7058 19.2049 49.6753 20.5223 49.6655Z" fill="#FDBE36"/>
</svg>
