<svg width="56" height="55" viewBox="0 0 56 55" fill="none" xmlns="http://www.w3.org/2000/svg">
<path d="M55.0107 52.9601C55.0279 52.4534 54.319 51.8521 53.596 51.8015C52.9775 51.7585 52.3546 51.7929 51.6811 51.7929V34.2414C51.6811 32.8052 51.1056 32.235 49.6597 32.234C47.7233 32.234 45.7944 32.234 43.8612 32.234C42.6423 32.234 42.0162 32.8654 42.0162 34.0918C42.0162 39.7476 42.0162 45.4023 42.0162 51.056V51.7369H38.7889V51.1711C38.7889 47.6461 38.7889 44.1211 38.7889 40.5961C38.7889 39.2944 38.181 38.679 36.8955 38.6769C34.9447 38.6769 32.9939 38.6769 31.0432 38.6769C29.7189 38.6769 29.124 39.2815 29.124 40.623C29.124 44.13 29.124 47.6375 29.124 51.1453V51.7499H25.8966V27.8437C25.8966 26.3612 25.335 25.7997 23.8623 25.7997H18.1714C16.8352 25.7997 16.2349 26.4 16.2349 27.7264C16.2349 35.5101 16.2349 43.2942 16.2349 51.0786V51.7509H13.0076V18.1981C13.0076 16.6802 12.4546 16.1262 10.9431 16.1262H5.30599C3.93544 16.1262 3.3416 16.7178 3.3416 18.0819C3.3416 29.0873 3.3416 40.0922 3.3416 51.0969V51.7789C2.81339 51.7789 2.33466 51.7789 1.85593 51.7789C0.881268 51.7789 0.242245 52.2383 0.0518303 53.0537C-0.126751 53.8229 0.146503 54.52 1.02757 54.9686C1.08024 54.991 1.13714 55.0016 1.19432 54.9998H53.8295C54.4265 54.9998 54.9967 54.1327 55.0129 53.8164C55.0236 53.5324 54.9956 53.3872 55.0107 52.9601Z" fill="#FDBE36"/>
<path d="M42.0193 21.0533C42.1872 21.4836 41.8849 21.6514 41.5137 21.8311C40.2432 22.4464 38.9824 23.0833 37.7259 23.7277C37.4397 23.8751 37.2353 23.8804 36.9631 23.6664C35.5291 22.5389 33.9509 22.2883 32.2178 22.8972C32.1175 22.9223 32.0128 22.9243 31.9116 22.903C31.8105 22.8818 31.7154 22.8378 31.6337 22.7745C29.6456 20.8144 27.678 18.8328 25.6953 16.8663C25.4802 16.6576 25.4629 16.4898 25.5662 16.2133C26.2655 14.3317 25.7523 12.2017 24.3258 10.9634C22.6809 9.53694 20.6273 9.28628 18.7479 10.3051C18.4918 10.4438 18.3175 10.4481 18.0787 10.2674C16.4123 9.0012 14.7287 7.75543 13.0688 6.48062C12.9354 6.3795 12.8482 6.09227 12.8816 5.91906C13.2689 3.91702 12.6826 2.26138 11.0796 1.02207C9.59719 -0.121497 7.91681 -0.301156 6.22136 0.461579C4.37423 1.29316 3.40387 2.81111 3.36515 4.82929C3.29522 8.45685 7.27026 10.8257 10.4654 9.08619C10.7623 8.92374 10.9559 8.9302 11.2238 9.13352C12.8611 10.38 14.5067 11.615 16.1606 12.8385C16.3897 13.0096 16.465 13.1516 16.3962 13.456C15.9917 15.2451 16.4693 16.8104 17.8087 18.0389C19.2277 19.3406 20.9059 19.6859 22.738 19.0179C23.0607 18.8985 23.2457 18.9576 23.477 19.1911C25.4048 21.1361 27.3413 23.0725 29.2863 25.0003C29.5197 25.2316 29.5778 25.4134 29.4563 25.7394C28.4612 28.4138 29.9059 31.2076 32.6933 32.0414C35.2483 32.8073 38.0454 31.1506 38.6586 28.4741C38.7575 28.0437 38.7167 27.5833 38.7855 27.1444C38.8124 26.9701 38.9243 26.7377 39.0663 26.6646C40.4315 25.9578 41.8042 25.2661 43.193 24.6077C43.3565 24.5302 43.6771 24.5958 43.8331 24.7153C46.386 26.6517 49.8242 25.8803 51.213 22.9757C51.9887 21.3534 51.8359 19.7118 50.8128 18.2369C49.7543 16.7114 48.2309 15.9777 46.372 16.1832C43.8105 16.4704 41.9881 18.5305 42.0193 21.0533Z" fill="#FDBE36"/>
</svg>
