<svg width="203" height="61" viewBox="0 0 203 61" fill="none" xmlns="http://www.w3.org/2000/svg">
<path d="M12.7661 31.7684C14.838 35.0726 13.9837 39.4539 10.7754 41.6095C9.73891 42.3051 8.5393 42.7047 7.30088 42.767C6.06246 42.8292 4.83029 42.5518 3.73201 41.9635C2.63373 41.3752 1.7093 40.4974 1.05448 39.421C0.39967 38.3446 0.0382931 37.1088 0.00779186 35.8417C-0.00973983 35.071 0.00779186 22.5236 0.00779186 22.5236L10.4136 29.4873C10.4136 29.4873 12.0728 30.6555 12.7661 31.7684Z" fill="#1BC8FF"/>
<path d="M33.938 0.757716L33.4487 0.733276C31.8367 0.733191 30.2897 1.38347 29.1441 2.54279C27.9984 3.70212 27.3465 5.27682 27.3301 6.92471L27.6202 19.7035L0.0078125 1.93246V16.717L39.6262 42.211L39.5689 7.05669C39.6055 3.60089 37.3184 0.795191 33.938 0.757716Z" fill="#1BC8FF"/>
<path d="M0.0078125 59.8253V53.4188H0.740967V59.8253H0.0078125Z" fill="#606060"/>
<path d="M6.71281 53.4188H7.45392V59.9361H7.18776L3.19531 55.0204V59.8253H2.45898V53.308H2.72515L6.70962 58.2302L6.71281 53.4188Z" fill="#606060"/>
<path d="M13.4371 53.4188H14.1766V59.9361H13.9104L9.92594 55.0237V59.8253H9.18164V53.308H9.44781L13.4323 58.2302L13.4371 53.4188Z" fill="#606060"/>
<path d="M15.4977 56.622C15.4829 56.1848 15.5589 55.7494 15.7207 55.3444C15.8825 54.9394 16.1264 54.5741 16.4364 54.2725C17.0536 53.6543 17.8833 53.3081 18.7474 53.3081C19.6115 53.3081 20.4411 53.6543 21.0584 54.2725C21.3598 54.5823 21.5986 54.9498 21.7611 55.3539C21.9236 55.7581 22.0066 56.191 22.0054 56.628C22.0042 57.0649 21.9188 57.4973 21.7542 57.9006C21.5895 58.3038 21.3487 58.6699 21.0456 58.978C20.7464 59.2916 20.3873 59.5388 19.9905 59.7042C19.5937 59.8696 19.1678 59.9496 18.7394 59.9393C18.3125 59.9436 17.889 59.861 17.4936 59.6963C17.0983 59.5316 16.7389 59.288 16.4366 58.9799C16.1342 58.6717 15.895 58.3051 15.7327 57.9014C15.5704 57.4977 15.4883 57.065 15.4913 56.6285L15.4977 56.622ZM21.2353 56.6122C21.2474 56.2697 21.1904 55.9283 21.0679 55.6093C20.9453 55.2903 20.7598 55.0006 20.5229 54.758C20.2974 54.5118 20.0231 54.3177 19.7182 54.1887C19.4134 54.0597 19.0851 53.9988 18.7554 54.0102C18.4253 54.002 18.0971 54.0637 17.7915 54.1916C17.486 54.3195 17.2096 54.5107 16.9799 54.7532C16.7443 54.9978 16.5594 55.2885 16.4364 55.608C16.3135 55.9275 16.2549 56.269 16.2643 56.6122C16.2542 56.958 16.3121 57.3024 16.4348 57.6248C16.5575 57.9473 16.7423 58.2412 16.9783 58.4892C17.2065 58.7344 17.4823 58.9281 17.7881 59.0577C18.0939 59.1873 18.4228 59.2501 18.7538 59.2419C19.0839 59.2531 19.4126 59.1917 19.7175 59.0618C20.0224 58.9319 20.2965 58.7367 20.5213 58.4892C20.7596 58.243 20.9458 57.9493 21.0684 57.6264C21.1909 57.3035 21.2472 56.9583 21.2337 56.6122H21.2353Z" fill="#606060"/>
<path d="M27.4528 53.4188H28.2688L25.5594 59.9361H25.2837L22.5742 53.4188H23.3902L25.4319 58.4469L27.4528 53.4188Z" fill="#606060"/>
<path d="M33.0185 59.8253L32.4862 58.5218H29.4102L28.8779 59.8253H28.1001L30.8095 53.308H31.0869L33.7963 59.8253H33.0185ZM32.2025 57.8456L30.9498 54.6896L29.6955 57.8456H32.2025Z" fill="#606060"/>
<path d="M35.771 59.8253V54.0982H33.5684V53.4188H38.7259V54.0982H36.5057V59.8253H35.771Z" fill="#606060"/>
<path d="M39.7695 59.8253V53.4188H40.5106V59.8253H39.7695Z" fill="#606060"/>
<path d="M41.8206 56.622C41.806 56.1847 41.8823 55.7492 42.0444 55.3442C42.2065 54.9392 42.4507 54.5739 42.7609 54.2725C43.3782 53.6543 44.2079 53.3081 45.0719 53.3081C45.936 53.3081 46.7657 53.6543 47.3829 54.2725C47.9903 54.8968 48.3312 55.7415 48.3312 56.622C48.3312 57.5025 47.9903 58.3472 47.3829 58.9715C47.0835 59.2852 46.724 59.5325 46.327 59.6979C45.9299 59.8632 45.5038 59.9432 45.0751 59.9328C44.6483 59.9367 44.225 59.8538 43.8298 59.6889C43.4347 59.524 43.0755 59.2804 42.7732 58.9724C42.471 58.6643 42.2317 58.2978 42.0692 57.8943C41.9068 57.4908 41.8244 57.0583 41.827 56.622H41.8206ZM47.5583 56.6122C47.5707 56.2697 47.5138 55.9282 47.3912 55.6092C47.2686 55.2901 47.083 55.0004 46.8458 54.758C46.6204 54.5118 46.346 54.3177 46.0412 54.1887C45.7364 54.0597 45.4081 53.9988 45.0783 54.0102C44.7482 54.002 44.4201 54.0637 44.1145 54.1916C43.8089 54.3195 43.5325 54.5107 43.3028 54.7532C43.0678 54.998 42.8835 55.2889 42.7611 55.6084C42.6387 55.9278 42.5806 56.2693 42.5904 56.6122C42.5799 56.9578 42.6374 57.302 42.7595 57.6245C42.8816 57.9469 43.0658 58.241 43.3012 58.4892C43.5295 58.7343 43.8053 58.9279 44.1111 59.0576C44.4169 59.1872 44.7458 59.25 45.0767 59.2419C45.4069 59.2531 45.7355 59.1917 46.0405 59.0618C46.3454 58.9319 46.6195 58.7367 46.8442 58.4892C47.0829 58.2432 47.2693 57.9496 47.3919 57.6266C47.5145 57.3037 47.5706 56.9583 47.5567 56.6122H47.5583Z" fill="#606060"/>
<path d="M53.9001 53.4188H54.6412V59.9361H54.375L50.3905 55.0237V59.8253H49.6494V53.308H49.9172L53.9017 58.2302L53.9001 53.4188Z" fill="#606060"/>
<path d="M59.4258 61V52.2538H60.0537V61H59.4258Z" fill="#606060"/>
<path d="M64.3652 58.5545L64.9151 58.1357C65.3837 58.8678 65.9681 59.2339 66.6683 59.2339C66.9978 59.2498 67.3222 59.1465 67.5847 58.9423C67.6975 58.8491 67.7875 58.7304 67.8475 58.5955C67.9076 58.4606 67.936 58.3132 67.9306 58.1651C67.9384 58.0521 67.9226 57.9387 67.8841 57.8325C67.8456 57.7263 67.7854 57.6297 67.7074 57.5492C67.4561 57.3442 67.1803 57.1728 66.8866 57.0392L66.179 56.697C65.782 56.5265 65.4206 56.2798 65.1143 55.9704C64.876 55.6993 64.7502 55.344 64.7637 54.9797C64.7581 54.7493 64.8049 54.5206 64.9003 54.3117C64.9957 54.1028 65.1371 53.9193 65.3135 53.7757C65.6917 53.4619 66.1671 53.2966 66.6539 53.3097C67.0509 53.3063 67.442 53.4085 67.7887 53.6062C68.1249 53.7957 68.4101 54.0672 68.6191 54.3964L68.0772 54.8152C67.9277 54.5645 67.7166 54.3582 67.465 54.2167C67.2134 54.0753 66.9299 54.0035 66.6428 54.0087C66.3568 53.9977 66.0756 54.0868 65.8459 54.2612C65.7431 54.3398 65.6605 54.4427 65.605 54.561C65.5495 54.6793 65.5228 54.8095 65.5271 54.9406C65.5202 55.1052 65.5631 55.2679 65.6498 55.4066C65.7266 55.5242 65.8272 55.6237 65.9447 55.6983C66.0642 55.7765 66.2634 55.8824 66.5328 56.0241L67.2261 56.363C67.6425 56.5523 68.0208 56.8192 68.3418 57.15C68.577 57.426 68.7012 57.7829 68.6892 58.1488C68.6955 58.3935 68.6475 58.6365 68.5486 58.8594C68.4498 59.0824 68.3028 59.2795 68.1186 59.4359C67.7109 59.7789 67.1943 59.9569 66.6667 59.9361C66.1994 59.9399 65.74 59.8138 65.3374 59.5712C64.9319 59.3252 64.5966 58.9746 64.3652 58.5545Z" fill="#606060"/>
<path d="M70.0518 57.282V53.4188H70.7945V57.3292C70.7945 57.9375 70.9539 58.4067 71.2726 58.7369C71.4415 58.9027 71.6417 59.0315 71.8609 59.1156C72.0801 59.1996 72.3138 59.2371 72.5476 59.2257C72.7796 59.2372 73.0114 59.1998 73.2286 59.1157C73.4457 59.0316 73.6436 58.9027 73.8099 58.7369C74.1287 58.4111 74.2881 57.9369 74.2881 57.3292V53.4188H75.0292V57.282C75.0292 58.1042 74.7997 58.7516 74.3407 59.2241C74.1056 59.4611 73.8254 59.6462 73.5176 59.7681C73.2097 59.89 72.8807 59.9461 72.5508 59.9329C71.8071 59.9329 71.2041 59.6966 70.7419 59.2241C70.2797 58.7516 70.0496 58.1042 70.0518 57.282Z" fill="#606060"/>
<path d="M76.1592 58.5544L76.7106 58.1357C77.1792 58.8678 77.7636 59.2338 78.4638 59.2338C78.7933 59.25 79.1179 59.1467 79.3802 58.9422C79.493 58.849 79.583 58.7303 79.643 58.5954C79.7031 58.4605 79.7315 58.3131 79.7261 58.165C79.7343 58.052 79.7186 57.9385 79.6801 57.8322C79.6416 57.726 79.5812 57.6294 79.5029 57.5491C79.2519 57.3438 78.976 57.1724 78.6821 57.0391L77.9729 56.697C77.5764 56.5264 77.2155 56.2797 76.9099 55.9703C76.671 55.6994 76.5446 55.3441 76.5576 54.9797C76.552 54.749 76.5989 54.5202 76.6946 54.3112C76.7903 54.1023 76.9322 53.9189 77.1091 53.7756C77.4864 53.4615 77.9614 53.2962 78.4479 53.3096C78.8449 53.306 79.236 53.4082 79.5826 53.6061C79.9188 53.7956 80.2041 54.0671 80.413 54.3964L79.8727 54.8151C79.7228 54.5648 79.5117 54.3587 79.2602 54.2173C79.0086 54.0759 78.7253 54.0039 78.4383 54.0086C78.1523 53.9979 77.8713 54.0869 77.6414 54.2611C77.4817 54.3966 77.3745 54.5858 77.3389 54.7948C77.3032 55.0038 77.3416 55.2189 77.447 55.4016C77.5238 55.5193 77.6243 55.6187 77.7418 55.6933C77.8613 55.7715 78.0606 55.8774 78.3299 56.0192L79.0248 56.3581C79.4411 56.5476 79.8194 56.8144 80.1405 57.145C80.3764 57.4206 80.5007 57.7778 80.4879 58.1438C80.4936 58.3883 80.4454 58.6309 80.3469 58.8537C80.2484 59.0765 80.1022 59.2738 79.9189 59.431C79.5105 59.7738 78.9934 59.9517 78.4654 59.9312C77.9982 59.9348 77.5387 59.8086 77.1362 59.5662C76.7299 59.3216 76.3932 58.9728 76.1592 58.5544Z" fill="#606060"/>
<path d="M83.4523 59.8253V54.0982H81.248V53.4188H86.4056V54.0982H84.1934V59.8253H83.4523Z" fill="#606060"/>
<path d="M91.0864 59.8253L90.5541 58.5218H87.4781L86.9457 59.8253H86.168L88.8774 53.308H89.1531L91.8626 59.8253H91.0864ZM90.2704 57.8456L89.0177 54.6896L87.7634 57.8456H90.2704Z" fill="#606060"/>
<path d="M93.0342 59.8253V53.4188H93.7737V59.8253H93.0342Z" fill="#606060"/>
<path d="M99.7472 53.4188H100.488V59.9361H100.222L96.2377 55.0237V59.8253H95.4966V53.308H95.7627L99.7472 58.2302V53.4188Z" fill="#606060"/>
<path d="M106.565 59.8253L106.033 58.5218H102.957L102.425 59.8253H101.647L104.356 53.308H104.632L107.342 59.8253H106.565ZM105.749 57.8456L104.497 54.6896L103.242 57.8456H105.749Z" fill="#606060"/>
<path d="M113.081 57.9809C113.089 58.2295 113.045 58.4769 112.951 58.7065C112.858 58.9362 112.717 59.1426 112.539 59.312C112.141 59.668 111.623 59.852 111.095 59.8253H108.513V53.4188H110.668C111.143 53.3957 111.609 53.5589 111.97 53.875C112.132 54.0346 112.259 54.2278 112.342 54.4416C112.425 54.6554 112.462 54.8849 112.451 55.1147C112.441 55.3444 112.382 55.5692 112.279 55.7738C112.176 55.9784 112.032 56.1582 111.855 56.3011C112.217 56.3957 112.535 56.6141 112.758 56.9197C112.981 57.2254 113.095 57.5999 113.081 57.9809ZM110.593 54.0982H109.253V56.0876H110.593C110.888 56.108 111.18 56.0131 111.409 55.822C111.505 55.7279 111.581 55.6136 111.63 55.4871C111.679 55.3606 111.701 55.2248 111.694 55.0888C111.702 54.9535 111.68 54.8182 111.63 54.6924C111.581 54.5666 111.506 54.4534 111.409 54.3605C111.179 54.1719 110.888 54.0783 110.593 54.0982ZM111.973 58.8232C112.196 58.5935 112.321 58.2831 112.321 57.9597C112.321 57.6363 112.196 57.3259 111.973 57.0962C111.707 56.8672 111.365 56.7506 111.017 56.7703H109.253V59.141H111.02C111.366 59.1625 111.706 59.0496 111.973 58.8249V58.8232Z" fill="#606060"/>
<path d="M114.362 59.8253V53.4188H115.102V59.8253H114.362Z" fill="#606060"/>
<path d="M116.821 59.8253V53.4188H117.562V59.141H120.535V59.8204L116.821 59.8253Z" fill="#606060"/>
<path d="M121.627 59.8253V53.4188H122.368V59.8253H121.627Z" fill="#606060"/>
<path d="M125.599 59.8253V54.0982H123.402V53.4188H128.56V54.0982H126.346V59.8253H125.599Z" fill="#606060"/>
<path d="M134.205 53.4188L132.029 57.176V59.8253H131.288V57.176L129.114 53.4188H129.949L131.66 56.4282L133.378 53.4188H134.205Z" fill="#606060"/>
<path d="M138.13 61V52.2538H138.757V61H138.13Z" fill="#606060"/>
<path d="M143.543 59.8253V53.4188H144.284V59.8253H143.543Z" fill="#606060"/>
<path d="M150.258 53.4188H150.999V59.9361H150.733L146.748 55.0237V59.8253H145.999V53.308H146.264L150.248 58.2302L150.258 53.4188Z" fill="#606060"/>
<path d="M154.245 59.8253V54.0982H152.042V53.4188H157.198V54.0982H154.986V59.8253H154.245Z" fill="#606060"/>
<path d="M158.243 59.8253V53.4188H162.256V54.0982H158.981V56.0534H161.486V56.7312H158.981V59.141H162.369V59.8204L158.243 59.8253Z" fill="#606060"/>
<path d="M163.067 56.6221C163.054 56.1837 163.132 55.7476 163.295 55.342C163.459 54.9364 163.703 54.5704 164.014 54.2677C164.313 53.9535 164.673 53.7063 165.071 53.5416C165.469 53.377 165.896 53.2986 166.325 53.3113C166.829 53.3064 167.327 53.4248 167.778 53.6567C168.216 53.8827 168.594 54.2143 168.879 54.6229L168.312 55.0677C168.091 54.7366 167.793 54.4666 167.445 54.2818C167.098 54.097 166.71 54.0032 166.318 54.0086C165.986 53.9948 165.654 54.0544 165.346 54.1835C165.038 54.3125 164.761 54.508 164.533 54.7565C164.299 55.0002 164.115 55.2904 163.994 55.6093C163.873 55.9282 163.818 56.2689 163.83 56.6107C163.817 56.9581 163.874 57.3045 163.998 57.6285C164.121 57.9525 164.308 58.2472 164.548 58.4942C164.778 58.7454 165.059 58.943 165.372 59.0737C165.684 59.2044 166.019 59.2651 166.356 59.2518C166.782 59.2574 167.202 59.152 167.577 58.9455C167.934 58.7485 168.233 58.4591 168.446 58.1064V57.2412H166.309V56.5618H169.187V58.2709C168.907 58.778 168.496 59.1971 168 59.4832C167.489 59.7843 166.908 59.9391 166.318 59.9312C165.89 59.9441 165.463 59.8661 165.066 59.702C164.668 59.538 164.308 59.2915 164.009 58.9781C163.699 58.6748 163.455 58.3083 163.293 57.9024C163.131 57.4965 163.054 57.0603 163.067 56.6221Z" fill="#606060"/>
<path d="M175.45 59.8254H174.587L172.639 57.137H171.3V59.8254H170.559V53.4188H172.763C173.295 53.3931 173.815 53.5795 174.215 53.9386C174.396 54.107 174.539 54.3135 174.634 54.5439C174.729 54.7743 174.775 55.0231 174.767 55.273C174.776 55.6763 174.652 56.071 174.416 56.394C174.172 56.7138 173.831 56.9428 173.447 57.0457L175.45 59.8254ZM171.307 54.0983V56.4575H172.741C173.079 56.4785 173.413 56.3653 173.672 56.1415C173.886 55.9092 174.005 55.602 174.005 55.2828C174.005 54.9635 173.886 54.6564 173.672 54.4241C173.417 54.1952 173.084 54.0782 172.746 54.0983H171.307Z" fill="#606060"/>
<path d="M180.815 59.8253L180.285 58.5218H177.207L176.676 59.8253H175.897L178.606 53.308H178.882L181.592 59.8253H180.815ZM179.999 57.8456L178.745 54.6896L177.492 57.8456H179.999Z" fill="#606060"/>
<path d="M183.569 59.8253V54.0982H181.367V53.4188H186.523V54.0982H184.31V59.8253H183.569Z" fill="#606060"/>
<path d="M187.568 59.8253V53.4188H188.309V59.8253H187.568Z" fill="#606060"/>
<path d="M189.62 56.622C189.604 56.1847 189.68 55.7491 189.842 55.344C190.004 54.9389 190.248 54.5736 190.558 54.2725C191.176 53.6543 192.005 53.3081 192.869 53.3081C193.733 53.3081 194.563 53.6543 195.18 54.2725C195.789 54.8962 196.131 55.7411 196.131 56.622C196.131 57.5029 195.789 58.3478 195.18 58.9715C194.881 59.2852 194.521 59.5325 194.124 59.6979C193.727 59.8633 193.301 59.9432 192.873 59.9328C192.444 59.9463 192.018 59.8678 191.621 59.7022C191.224 59.5366 190.866 59.2876 190.57 58.9715C190.258 58.6709 190.012 58.306 189.848 57.901C189.684 57.496 189.606 57.06 189.62 56.622ZM195.357 56.6122C195.37 56.2697 195.313 55.9282 195.19 55.6092C195.068 55.2901 194.882 55.0004 194.645 54.758C194.42 54.5118 194.146 54.3176 193.841 54.1886C193.537 54.0596 193.208 53.9988 192.879 54.0102C192.549 54.002 192.221 54.0637 191.915 54.1916C191.61 54.3195 191.333 54.5107 191.103 54.7532C190.868 54.998 190.684 55.2889 190.562 55.6084C190.439 55.9278 190.381 56.2693 190.391 56.6122C190.381 56.9579 190.438 57.3022 190.561 57.6247C190.683 57.9471 190.868 58.2411 191.103 58.4892C191.332 58.7346 191.607 58.9283 191.913 59.058C192.219 59.1876 192.548 59.2503 192.879 59.242C193.208 59.2528 193.536 59.1912 193.84 59.0614C194.144 58.9315 194.418 58.7364 194.642 58.4892C194.88 58.2432 195.067 57.9496 195.189 57.6266C195.312 57.3037 195.368 56.9583 195.354 56.6122H195.357Z" fill="#606060"/>
<path d="M201.699 53.4188H202.438V59.9361H202.174L198.189 55.0237V59.8253H197.448V53.308H197.714L201.699 58.2302V53.4188Z" fill="#606060"/>
<path d="M63.087 2.7142L69.4303 12.5244V2.62296C69.4303 1.97992 69.5652 1.49709 69.8351 1.17449C69.9694 1.01393 70.1376 0.886554 70.3269 0.801901C70.5163 0.717248 70.7219 0.677517 70.9284 0.685689C71.1382 0.677242 71.3473 0.716734 71.5402 0.801291C71.7332 0.885848 71.9054 1.01334 72.0441 1.17449C72.3182 1.50035 72.4553 1.98317 72.4553 2.62296V15.7146C72.4553 17.1755 71.8629 17.906 70.6782 17.906C70.4072 17.9094 70.1377 17.8653 69.8813 17.7757C69.6355 17.6824 69.4093 17.5419 69.2151 17.3618C68.9991 17.163 68.8055 16.94 68.6381 16.6971C68.4596 16.4429 68.2827 16.1838 68.1042 15.9199L61.9219 6.22213V15.9769C61.9219 16.6123 61.7774 17.093 61.4884 17.4189C61.3487 17.5787 61.1764 17.7054 60.9836 17.7898C60.7909 17.8743 60.5824 17.9145 60.3728 17.9076C60.163 17.9158 59.9541 17.8761 59.7611 17.7916C59.5682 17.707 59.396 17.5797 59.2571 17.4189C58.9766 17.093 58.8347 16.6042 58.8347 15.9834V3.13456C58.818 2.69909 58.8785 2.26412 59.0133 1.85066C59.1568 1.50553 59.4012 1.21417 59.7129 1.01644C60.0253 0.803352 60.3925 0.689932 60.768 0.690577C61.0127 0.681484 61.2565 0.725417 61.4834 0.819488C61.7103 0.91356 61.9151 1.05564 62.0845 1.2364C62.2685 1.43594 62.4319 1.65434 62.5722 1.88813C62.7379 2.15045 62.9101 2.42581 63.087 2.7142Z" fill="#1BC8FF"/>
<path d="M86.9698 11.6038C86.9801 12.4741 86.8381 13.3393 86.5507 14.1586C86.2875 14.9095 85.8714 15.5948 85.3298 16.1692C84.7894 16.7332 84.1374 17.1726 83.4173 17.4579C82.6193 17.7669 81.7714 17.9189 80.9182 17.906C80.0717 17.9194 79.2306 17.765 78.4415 17.4514C77.7217 17.1592 77.0708 16.7142 76.5317 16.1457C75.9927 15.5772 75.5778 14.8982 75.3145 14.1537C75.0289 13.3357 74.8881 12.4722 74.8985 11.6038C74.8884 10.7264 75.0308 9.85421 75.3192 9.02782C75.5804 8.28145 75.9932 7.60009 76.5305 7.02864C77.0704 6.46668 77.7228 6.0309 78.4431 5.75125C80.0496 5.15063 81.8123 5.15063 83.4189 5.75125C84.1423 6.03809 84.7967 6.48123 85.3372 7.05038C85.8777 7.61953 86.2916 8.30127 86.5507 9.049C86.8369 9.8686 86.9788 10.7336 86.9698 11.6038ZM83.9257 11.6038C83.9257 10.3416 83.6537 9.35803 83.1097 8.65308C82.853 8.31097 82.52 8.03652 82.1385 7.85259C81.7571 7.66865 81.3382 7.58056 80.9166 7.59564C80.3596 7.58552 79.813 7.74983 79.3499 8.06652C78.8738 8.41331 78.5102 8.89795 78.306 9.45796C78.0511 10.1427 77.9283 10.8713 77.9442 11.6038C77.9303 12.327 78.0532 13.0463 78.306 13.7219C78.5102 14.2783 78.8692 14.7615 79.3388 15.1117C79.8027 15.4412 80.3566 15.6123 80.9214 15.6005C81.3434 15.6152 81.7626 15.5264 82.1441 15.3416C82.5256 15.1568 82.8584 14.8813 83.1145 14.5382C83.6564 13.83 83.9268 12.8518 83.9257 11.6038Z" fill="#1BC8FF"/>
<path d="M92.2005 13.4319V16.0209C92.2005 16.6498 92.056 17.1212 91.767 17.4351C91.6274 17.5896 91.457 17.7116 91.2672 17.7929C91.0775 17.8741 90.8729 17.9127 90.6672 17.906C90.4646 17.9118 90.2631 17.8723 90.077 17.7901C89.8909 17.7079 89.7246 17.5851 89.5898 17.4302C89.3093 17.1044 89.1675 16.6416 89.1675 16.0209V7.38543C89.1675 5.9929 89.66 5.29663 90.6449 5.29663C91.1486 5.29663 91.5114 5.45956 91.7335 5.78543C91.9566 6.11129 92.0777 6.59195 92.1001 7.22738C92.3895 6.6857 92.7668 6.19813 93.2157 5.78543C93.5961 5.45956 94.1051 5.29663 94.7426 5.29663C95.3909 5.30057 96.0283 5.46849 96.5977 5.78543C97.197 6.11129 97.4966 6.54307 97.4966 7.08074C97.5016 7.25571 97.47 7.42974 97.404 7.59127C97.3381 7.7528 97.2393 7.89813 97.1141 8.01761C96.8964 8.24668 96.5993 8.37895 96.287 8.38583C96.01 8.3479 95.738 8.27905 95.4757 8.18054C95.1164 8.05292 94.7402 7.98205 94.3601 7.97035C93.9669 7.95288 93.5807 8.08006 93.2715 8.32881C92.9567 8.61203 92.7264 8.98021 92.6069 9.39113C92.4375 9.93436 92.3305 10.4959 92.2881 11.0644C92.2297 11.7129 92.2005 12.5021 92.2005 13.4319Z" fill="#1BC8FF"/>
<path d="M99.5974 5.57524H99.9385V3.71292C99.9385 3.21271 99.9528 2.82167 99.9783 2.53817C99.9957 2.28021 100.07 2.02958 100.195 1.80498C100.317 1.58925 100.493 1.41088 100.705 1.28848C100.931 1.15524 101.188 1.08658 101.449 1.0897C101.839 1.09368 102.212 1.25264 102.489 1.53288C102.693 1.72331 102.831 1.97582 102.884 2.25304C102.948 2.65308 102.976 3.05835 102.967 3.46363V5.58175H104.082C104.437 5.55753 104.787 5.66841 105.066 5.89295C105.176 5.99333 105.263 6.11709 105.321 6.25556C105.38 6.39403 105.408 6.54387 105.404 6.69458C105.418 6.87246 105.38 7.05064 105.295 7.20645C105.21 7.36226 105.081 7.48865 104.925 7.56953C104.607 7.73572 104.146 7.81882 103.542 7.81882H102.967V13.5198C102.961 13.8936 102.978 14.2674 103.016 14.6392C103.039 14.8742 103.132 15.0963 103.284 15.2746C103.427 15.4375 103.663 15.519 103.988 15.519C104.232 15.5107 104.473 15.478 104.71 15.4213C104.944 15.3664 105.182 15.3342 105.421 15.3251C105.546 15.3268 105.668 15.3544 105.782 15.4062C105.896 15.458 105.998 15.533 106.083 15.6265C106.178 15.7233 106.254 15.8392 106.304 15.967C106.355 16.0948 106.379 16.2318 106.376 16.3695C106.376 16.8703 106.11 17.2504 105.579 17.51C105.048 17.7697 104.281 17.9022 103.279 17.9076C102.331 17.9076 101.613 17.7447 101.124 17.4188C100.65 17.1077 100.308 16.6245 100.168 16.0665C99.9966 15.3115 99.9195 14.5374 99.9385 13.7626V7.81719H99.5385C99.1018 7.81719 98.7687 7.71128 98.5392 7.49947C98.4265 7.39807 98.3372 7.27243 98.2777 7.13158C98.2182 6.99073 98.1899 6.83815 98.1949 6.68481C98.1914 6.53183 98.2222 6.38008 98.2849 6.24114C98.3477 6.1022 98.4406 5.97976 98.5567 5.88318C98.7915 5.67897 99.1384 5.57632 99.5974 5.57524Z" fill="#1BC8FF"/>
<path d="M111.05 2.57736V7.17694C111.383 6.77251 111.762 6.41038 112.179 6.09833C112.548 5.83141 112.959 5.62982 113.393 5.50199C113.86 5.36583 114.343 5.29888 114.828 5.30322C115.541 5.28903 116.247 5.4606 116.877 5.80179C117.474 6.13652 117.962 6.6415 118.283 7.25515C118.502 7.63838 118.649 8.05998 118.717 8.49832C118.795 9.02291 118.831 9.55306 118.827 10.0837V16.0209C118.827 16.6422 118.688 17.112 118.411 17.4303C118.272 17.5878 118.101 17.7121 117.91 17.7944C117.719 17.8766 117.513 17.9147 117.306 17.906C116.305 17.906 115.805 17.2777 115.806 16.0209V10.7875C115.806 9.79472 115.662 9.03166 115.373 8.49832C115.084 7.96499 114.536 7.69832 113.73 7.69832C113.206 7.69238 112.694 7.85733 112.268 8.1692C111.828 8.49277 111.49 8.94073 111.296 9.458C111.133 9.92072 111.052 10.7424 111.052 11.9232V16.0209C111.052 16.6352 110.917 17.1012 110.647 17.4238C110.507 17.5867 110.333 17.7152 110.138 17.7998C109.942 17.8844 109.731 17.923 109.519 17.9126C108.52 17.9126 108.02 17.2842 108.019 16.0274V2.57736C108.019 1.95007 108.151 1.47756 108.414 1.1631C108.552 1.00482 108.723 0.880286 108.914 0.798765C109.105 0.717244 109.312 0.680829 109.519 0.692228C109.73 0.680866 109.941 0.717832 110.136 0.800427C110.331 0.883021 110.506 1.00916 110.647 1.16962C110.916 1.48788 111.05 1.95713 111.05 2.57736Z" fill="#1BC8FF"/>
<path d="M129.763 12.3647H123.833C123.827 13.0102 123.97 13.6479 124.249 14.227C124.478 14.7212 124.841 15.1376 125.295 15.4265C125.749 15.7154 126.275 15.8646 126.81 15.8564C127.146 15.8596 127.48 15.8157 127.804 15.726C128.113 15.6323 128.406 15.4929 128.674 15.3122C128.948 15.1334 129.208 14.934 129.452 14.7158C129.69 14.504 129.998 14.2162 130.375 13.8523C130.566 13.7049 130.802 13.6327 131.041 13.6486C131.316 13.6357 131.586 13.7287 131.797 13.9093C131.895 14.0031 131.972 14.1178 132.022 14.2454C132.071 14.373 132.093 14.5103 132.085 14.6474C132.064 14.996 131.954 15.3329 131.766 15.625C131.512 16.044 131.182 16.41 130.794 16.7036C130.301 17.0801 129.749 17.3697 129.162 17.5606C128.432 17.7998 127.668 17.9149 126.901 17.9012C124.955 17.9012 123.441 17.3336 122.358 16.1985C121.276 15.0634 120.734 13.5248 120.734 11.5826C120.726 10.7156 120.862 9.85343 121.136 9.03275C121.382 8.28484 121.779 7.59815 122.301 7.01728C122.827 6.44678 123.473 6.00606 124.19 5.72848C124.984 5.42069 125.828 5.26869 126.677 5.28042C127.862 5.28042 128.878 5.53568 129.726 6.0462C130.533 6.51045 131.196 7.19695 131.639 8.02746C132.049 8.78548 132.268 9.63609 132.276 10.5024C132.276 11.2823 132.058 11.7879 131.621 12.0193C131.185 12.2507 130.565 12.3658 129.763 12.3647ZM123.833 10.6051H129.331C129.257 9.54599 128.977 8.75305 128.493 8.22624C128.247 7.96408 127.949 7.75825 127.619 7.62232C127.29 7.48639 126.935 7.42345 126.58 7.43764C126.232 7.4265 125.886 7.49219 125.565 7.63025C125.244 7.7683 124.956 7.97547 124.72 8.23764C124.233 8.77206 123.937 9.5612 123.833 10.6051Z" fill="#1BC8FF"/>
<path d="M142.308 16.1577C141.658 16.6866 140.942 17.1249 140.18 17.4612C139.447 17.7651 138.662 17.9163 137.871 17.906C137.161 17.9196 136.459 17.7563 135.826 17.4302C135.265 17.1419 134.793 16.6996 134.465 16.1529C134.15 15.6267 133.984 15.0214 133.986 14.4046C133.971 13.6041 134.256 12.8279 134.783 12.236C135.307 11.6385 136.029 11.2372 136.949 11.0319C137.141 10.9863 137.619 10.8842 138.384 10.7256C139.149 10.567 139.802 10.4209 140.344 10.2873C140.888 10.1548 141.478 9.99183 142.115 9.79849C142.078 8.98382 141.917 8.38097 141.637 8.00623C141.356 7.63148 140.762 7.43271 139.864 7.43271C139.095 7.43271 138.516 7.54133 138.127 7.75857C137.719 7.99752 137.375 8.33691 137.128 8.74594C136.946 9.04565 136.749 9.33552 136.538 9.61437C136.423 9.75449 136.178 9.82456 135.8 9.82456C135.475 9.83081 135.16 9.71154 134.917 9.49054C134.797 9.38501 134.701 9.25332 134.636 9.10507C134.572 8.95682 134.54 8.79573 134.544 8.63352C134.556 8.05391 134.756 7.49471 135.112 7.0433C135.489 6.52843 136.078 6.10426 136.878 5.7708C137.678 5.43733 138.673 5.27114 139.864 5.27222C141.198 5.27222 142.246 5.43515 143.009 5.76102C143.721 6.03558 144.301 6.58324 144.625 7.2877C144.944 7.98505 145.103 8.90833 145.103 10.0575C145.103 10.7842 145.103 11.4001 145.103 11.9085C145.103 12.4168 145.094 12.9789 145.087 13.5997C145.092 14.218 145.188 14.832 145.371 15.4213C145.559 16.0535 145.653 16.4608 145.653 16.6433C145.647 16.8122 145.605 16.9777 145.529 17.1279C145.454 17.2781 145.346 17.4092 145.215 17.5117C144.943 17.7647 144.588 17.9042 144.22 17.9027C143.867 17.8832 143.536 17.7222 143.299 17.4547C142.917 17.0662 142.584 16.6305 142.308 16.1577ZM142.107 11.6722C141.473 11.8918 140.825 12.0682 140.169 12.2001C139.319 12.3859 138.734 12.5222 138.416 12.6091C138.071 12.7063 137.753 12.8811 137.483 13.1207C137.334 13.2507 137.217 13.414 137.14 13.598C137.063 13.7819 137.028 13.9815 137.039 14.1814C137.035 14.407 137.079 14.6307 137.167 14.8374C137.256 15.0441 137.387 15.2288 137.552 15.3789C137.927 15.7174 138.417 15.8927 138.918 15.8677C139.495 15.8767 140.065 15.7419 140.58 15.4751C141.043 15.2481 141.431 14.8872 141.696 14.4372C141.97 13.9679 142.107 13.1956 142.107 12.1203V11.6722Z" fill="#1BC8FF"/>
<path d="M157.82 13.8457C157.856 14.6314 157.639 15.4074 157.202 16.0549C156.766 16.7023 156.133 17.1855 155.402 17.4303C154.605 17.7442 153.637 17.9011 152.497 17.9011C151.54 17.9262 150.588 17.7527 149.698 17.3912C148.92 17.0501 148.347 16.6237 147.977 16.1121C147.632 15.6755 147.436 15.1352 147.421 14.5741C147.418 14.4114 147.449 14.25 147.51 14.0998C147.571 13.9496 147.662 13.8138 147.776 13.7007C147.894 13.5805 148.035 13.4863 148.189 13.4238C148.344 13.3613 148.51 13.3319 148.676 13.3374C148.941 13.3194 149.203 13.4044 149.41 13.5753C149.606 13.7703 149.771 13.9964 149.897 14.2449C150.162 14.7469 150.545 15.1727 151.013 15.4832C151.446 15.7559 152.037 15.8922 152.784 15.8922C153.315 15.9161 153.84 15.7703 154.287 15.4751C154.675 15.1997 154.868 14.8836 154.868 14.5268C154.868 13.9837 154.667 13.5867 154.264 13.3358C153.861 13.0848 153.195 12.847 152.27 12.6205C151.4 12.4128 150.547 12.1333 149.72 11.7846C149.115 11.5316 148.576 11.137 148.147 10.6327C147.749 10.1383 147.54 9.51304 147.559 8.87304C147.562 8.24377 147.751 7.63018 148.103 7.11337C148.506 6.52708 149.063 6.06863 149.709 5.79036C150.518 5.44235 151.391 5.27567 152.269 5.30156C152.981 5.2935 153.691 5.37781 154.382 5.55248C154.936 5.68747 155.466 5.91363 155.949 6.22213C156.327 6.46202 156.653 6.77933 156.905 7.15411C157.108 7.4467 157.223 7.79416 157.233 8.15288C157.239 8.31575 157.21 8.47791 157.15 8.62871C157.089 8.77951 156.998 8.91552 156.883 9.02783C156.608 9.26983 156.252 9.39209 155.89 9.36836C155.601 9.37672 155.318 9.2797 155.093 9.09463C154.816 8.85106 154.565 8.57796 154.344 8.27997C154.123 7.985 153.848 7.73796 153.533 7.55329C153.141 7.35238 152.705 7.25811 152.267 7.27956C151.788 7.26065 151.313 7.38523 150.901 7.63802C150.538 7.8759 150.356 8.17406 150.356 8.52926C150.354 8.68578 150.39 8.8404 150.46 8.97978C150.529 9.11916 150.631 9.2391 150.756 9.32926C151.082 9.56685 151.447 9.74187 151.834 9.84575C152.285 9.98261 152.907 10.1493 153.7 10.346C154.499 10.5282 155.273 10.8106 156.005 11.1867C156.538 11.4573 157.002 11.8518 157.359 12.3386C157.665 12.7786 157.826 13.3062 157.82 13.8457Z" fill="#1BC8FF"/>
<path d="M160.553 5.57522H160.886V3.7129C160.886 3.21215 160.899 2.82057 160.925 2.53816C160.943 2.28033 161.017 2.02987 161.141 1.80496C161.263 1.58924 161.439 1.41087 161.651 1.28846C161.878 1.15545 162.135 1.08681 162.396 1.08969C162.787 1.0924 163.162 1.25145 163.44 1.53286C163.644 1.72278 163.783 1.97552 163.835 2.25302C163.899 2.65307 163.927 3.05833 163.918 3.46361V5.58174H165.033C165.388 5.55751 165.738 5.66839 166.017 5.89294C166.127 5.9931 166.215 6.11682 166.273 6.25534C166.331 6.39386 166.359 6.5438 166.355 6.69457C166.369 6.87245 166.331 7.05063 166.246 7.20643C166.161 7.36224 166.032 7.48863 165.877 7.56951C165.558 7.7357 165.097 7.8188 164.495 7.8188H163.927V13.5198C163.922 13.8936 163.939 14.2674 163.978 14.6392C164.001 14.874 164.094 15.096 164.245 15.2746C164.39 15.4375 164.624 15.519 164.949 15.519C165.192 15.5107 165.434 15.4779 165.671 15.4212C165.904 15.3664 166.142 15.3343 166.382 15.3251C166.506 15.3266 166.629 15.3541 166.743 15.4059C166.857 15.4578 166.959 15.5328 167.043 15.6265C167.139 15.7232 167.215 15.839 167.266 15.9668C167.317 16.0946 167.341 16.2316 167.338 16.3695C167.338 16.8702 167.072 17.2504 166.541 17.51C166.01 17.7696 165.243 17.9021 164.241 17.9076C163.295 17.9076 162.576 17.7446 162.087 17.4188C161.611 17.1085 161.269 16.625 161.13 16.0664C160.959 15.3115 160.882 14.5373 160.902 13.7626V7.81717H160.502C160.066 7.81717 159.733 7.71126 159.503 7.49945C159.39 7.39805 159.301 7.27241 159.242 7.13156C159.182 6.99071 159.154 6.83814 159.159 6.68479C159.155 6.53195 159.186 6.38028 159.248 6.24135C159.311 6.10242 159.403 5.97991 159.519 5.88316C159.75 5.67895 160.094 5.5763 160.553 5.57522Z" fill="#1BC8FF"/>
<path d="M176.903 12.3647H170.97C170.965 13.0104 171.108 13.6483 171.388 14.227C171.617 14.7209 171.98 15.1371 172.434 15.426C172.888 15.7149 173.413 15.8643 173.948 15.8563C174.283 15.8597 174.618 15.8158 174.942 15.726C175.251 15.6335 175.544 15.4958 175.814 15.317C176.087 15.1374 176.347 14.9381 176.592 14.7207C176.828 14.5089 177.135 14.2211 177.513 13.8572C177.704 13.7101 177.94 13.6378 178.179 13.6535C178.454 13.6406 178.724 13.7336 178.935 13.9142C179.033 14.0079 179.11 14.1227 179.16 14.2503C179.209 14.3779 179.231 14.5151 179.223 14.6523C179.202 15.0009 179.092 15.3378 178.904 15.6299C178.65 16.0487 178.321 16.4147 177.934 16.7085C177.44 17.0849 176.887 17.3746 176.3 17.5655C175.57 17.8045 174.807 17.9196 174.04 17.906C172.092 17.906 170.578 17.3385 169.498 16.2034C168.417 15.0683 167.876 13.528 167.875 11.5826C167.868 10.7157 168.003 9.85371 168.275 9.03274C168.521 8.28444 168.919 7.59764 169.442 7.01726C169.967 6.44645 170.612 6.00565 171.329 5.72846C172.124 5.42083 172.968 5.26883 173.817 5.2804C175.003 5.2804 176.02 5.53566 176.867 6.04618C177.671 6.51165 178.331 7.19803 178.772 8.02744C179.182 8.78567 179.401 9.63615 179.41 10.5024C179.41 11.2823 179.191 11.7879 178.755 12.0193C178.318 12.2507 177.701 12.3658 176.903 12.3647ZM170.97 10.605H176.469C176.396 9.54597 176.116 8.75304 175.631 8.22622C175.385 7.96373 175.087 7.75768 174.757 7.62172C174.428 7.48577 174.073 7.42302 173.718 7.43763C173.37 7.42648 173.024 7.49218 172.703 7.63023C172.382 7.76829 172.094 7.97546 171.858 8.23763C171.37 8.77204 171.075 9.56118 170.97 10.605Z" fill="#1BC8FF"/>
<path d="M184.965 13.4319V16.0208C184.965 16.6498 184.822 17.1206 184.532 17.4351C184.393 17.5894 184.222 17.7113 184.033 17.7925C183.843 17.8738 183.639 17.9125 183.434 17.906C183.231 17.9121 183.03 17.8727 182.843 17.7905C182.657 17.7083 182.491 17.5853 182.356 17.4302C182.075 17.1109 181.934 16.6411 181.934 16.0208V7.38543C181.934 5.9929 182.427 5.29663 183.412 5.29663C183.915 5.29663 184.277 5.45956 184.5 5.78543C184.723 6.11129 184.844 6.59194 184.867 7.22738C185.156 6.68533 185.533 6.19768 185.982 5.78543C186.364 5.45956 186.873 5.29663 187.509 5.29663C188.158 5.30016 188.795 5.46811 189.364 5.78543C189.964 6.11129 190.264 6.54306 190.265 7.08074C190.269 7.25582 190.238 7.42989 190.171 7.59141C190.105 7.75294 190.006 7.89821 189.881 8.0176C189.663 8.24697 189.366 8.3793 189.054 8.38583C188.779 8.34607 188.509 8.27558 188.249 8.17565C187.885 8.04673 187.505 7.97583 187.12 7.96547C186.727 7.94799 186.341 8.07517 186.032 8.32392C185.721 8.60902 185.494 8.97685 185.377 9.38624C185.208 9.92967 185.101 10.4911 185.058 11.0596C184.997 11.7113 184.967 12.502 184.965 13.4319Z" fill="#1BC8FF"/>
<path d="M194.475 7.01726V7.39201C194.937 6.73703 195.536 6.19591 196.229 5.8083C196.905 5.46107 197.655 5.2877 198.412 5.30321C199.159 5.29026 199.898 5.47371 200.556 5.836C201.168 6.17691 201.661 6.70497 201.966 7.34639C202.167 7.72806 202.298 8.14374 202.353 8.57327C202.42 9.13052 202.45 9.69174 202.443 10.2531V16.0209C202.443 16.6422 202.304 17.112 202.027 17.4303C201.886 17.5815 201.716 17.7017 201.528 17.7834C201.34 17.8652 201.138 17.9068 200.933 17.9057C200.729 17.9046 200.527 17.8609 200.34 17.7772C200.153 17.6935 199.984 17.5715 199.845 17.4189C199.563 17.093 199.422 16.627 199.422 16.0209V10.856C199.422 9.83274 199.283 9.05066 199.005 8.50973C198.727 7.96879 198.174 7.69724 197.346 7.69506C196.815 7.69024 196.296 7.86176 195.868 8.18386C195.415 8.52449 195.074 8.99779 194.89 9.54109C194.742 10.0038 194.668 10.8668 194.668 12.1301V16.0128C194.668 16.6417 194.525 17.1126 194.241 17.427C194.101 17.5824 193.929 17.7049 193.738 17.7862C193.548 17.8675 193.342 17.9056 193.135 17.8979C192.931 17.9029 192.729 17.8617 192.543 17.7772C192.356 17.6926 192.191 17.5669 192.058 17.4091C191.777 17.0832 191.635 16.6173 191.635 16.0111V7.04985C191.635 6.46003 191.761 6.01903 192.013 5.72684C192.143 5.5803 192.303 5.46511 192.482 5.3896C192.661 5.31408 192.854 5.28013 193.047 5.29018C193.301 5.28645 193.55 5.35289 193.769 5.48244C193.992 5.62152 194.171 5.82277 194.286 6.06248C194.423 6.36045 194.488 6.68802 194.475 7.01726Z" fill="#1BC8FF"/>
<path d="M65.1096 35.9834H62.0814V40.6954C62.0814 41.3689 61.9257 41.88 61.6144 42.2286C61.4609 42.3926 61.2764 42.5231 61.0722 42.6123C60.868 42.7014 60.6483 42.7474 60.4262 42.7474C60.2042 42.7474 59.9844 42.7014 59.7802 42.6123C59.576 42.5231 59.3916 42.3926 59.2381 42.2286C58.9352 41.8843 58.7833 41.3792 58.7822 40.7134V27.8873C58.7822 27.1454 58.949 26.6154 59.2827 26.2971C59.6163 25.9788 60.1476 25.8197 60.8765 25.8197H65.108C66.3586 25.8197 67.3212 25.9185 67.9959 26.1162C68.6344 26.2905 69.225 26.6127 69.722 27.058C70.2096 27.4993 70.5885 28.052 70.8281 28.671C71.0886 29.3546 71.2169 30.0833 71.2058 30.8168C71.2058 32.5124 70.6947 33.7974 69.6726 34.6718C68.6504 35.5462 67.1294 35.9834 65.1096 35.9834ZM64.3127 28.3533H62.0878V33.4401H64.3095C64.9678 33.4565 65.6249 33.372 66.2587 33.1891C66.7324 33.0569 67.1513 32.771 67.4524 32.3745C67.7433 31.9372 67.8876 31.4152 67.8636 30.8869C67.8891 30.2272 67.6602 29.5836 67.2261 29.0946C66.7544 28.5961 65.7822 28.3468 64.3095 28.3468L64.3127 28.3533Z" fill="#1BC8FF"/>
<path d="M83.3711 36.4478C83.3804 37.3183 83.2373 38.1835 82.9488 39.0026C82.6856 39.7539 82.2688 40.4393 81.7263 41.0132C81.1868 41.5782 80.5345 42.0178 79.8138 42.3019C79.016 42.6117 78.168 42.7637 77.3147 42.75C76.4682 42.7634 75.6271 42.609 74.838 42.2954C74.1178 42.0039 73.4665 41.5591 72.9273 40.9906C72.3882 40.422 71.9736 39.7427 71.711 38.9977C71.4253 38.1797 71.2844 37.3163 71.295 36.4478C71.285 35.5699 71.4275 34.6972 71.7158 33.8702C71.9773 33.1245 72.3901 32.4438 72.927 31.8726C73.4673 31.3112 74.1196 30.8755 74.8396 30.5952C76.4461 29.9946 78.2088 29.9946 79.8154 30.5952C80.5359 30.8828 81.1879 31.3245 81.7279 31.8906C82.2705 32.4596 82.6888 33.1399 82.9552 33.8865C83.2411 34.7083 83.3819 35.5756 83.3711 36.4478ZM80.327 36.4478C80.327 35.1856 80.055 34.2015 79.511 33.4954C79.254 33.1537 78.921 32.8797 78.5395 32.696C78.1581 32.5124 77.7393 32.4245 77.3179 32.4396C76.7607 32.4293 76.2137 32.5942 75.7512 32.9121C75.2751 33.2583 74.9115 33.7424 74.7073 34.302C74.4508 34.9863 74.3263 35.715 74.3407 36.4478C74.3268 37.171 74.4497 37.8903 74.7025 38.5659C74.9067 39.1223 75.2657 39.6055 75.7353 39.9557C76.1991 40.2853 76.7531 40.4564 77.3179 40.4445C77.7397 40.4595 78.1589 40.371 78.5405 40.1865C78.922 40.002 79.2548 39.7267 79.511 39.3838C80.0603 38.6767 80.335 37.698 80.335 36.4478H80.327Z" fill="#1BC8FF"/>
<path d="M86.7834 32.0763L88.7597 39.0025L90.5591 32.5651C90.752 31.8922 90.8938 31.4245 90.9878 31.185C91.1014 30.9097 91.2806 30.6677 91.509 30.4812C91.8086 30.2466 92.1811 30.1308 92.5577 30.1553C92.9384 30.1294 93.3154 30.2452 93.6192 30.4812C93.8532 30.6757 94.038 30.9249 94.1579 31.2078C94.2615 31.4702 94.4065 31.9215 94.5914 32.5651L96.3908 39.0025L98.3894 32.0763C98.5233 31.5777 98.6295 31.2165 98.7082 30.9928C98.7935 30.7634 98.9351 30.5603 99.1193 30.403C99.3576 30.217 99.6539 30.1261 99.9529 30.1472C100.305 30.143 100.644 30.2819 100.896 30.5333C101.022 30.6469 101.123 30.7866 101.192 30.943C101.261 31.0995 101.297 31.2692 101.296 31.4408C101.296 31.758 101.182 32.2387 100.952 32.8828L98.4755 40.3093C98.2603 40.9366 98.0945 41.3911 97.975 41.6714C97.8487 41.9627 97.657 42.2194 97.4156 42.4209C97.1 42.6391 96.7268 42.7538 96.3459 42.7497C95.9649 42.7457 95.5941 42.623 95.2831 42.3981C95.0203 42.165 94.8191 41.868 94.6982 41.5345C94.5723 41.194 94.4368 40.7524 94.2886 40.2066L92.5545 34.1667L90.8779 40.2066C90.7245 40.8721 90.4816 41.5125 90.1559 42.1097C89.8977 42.5366 89.4424 42.75 88.79 42.75C88.4948 42.7598 88.2022 42.6913 87.9405 42.5512C87.703 42.4146 87.5026 42.2198 87.3572 41.9842C87.1875 41.7098 87.0496 41.4162 86.946 41.1093C86.828 40.7736 86.7356 40.507 86.6687 40.3093L84.2142 32.8828C83.9688 32.1871 83.8477 31.7064 83.8477 31.4408C83.8491 31.2722 83.8844 31.1057 83.9513 30.9516C84.0182 30.7974 84.1152 30.659 84.2365 30.5447C84.3607 30.4148 84.5096 30.3125 84.6742 30.2441C84.8387 30.1757 85.0153 30.1427 85.1928 30.1472C85.6965 30.1472 86.037 30.2927 86.2144 30.5838C86.4638 31.0553 86.6549 31.5566 86.7834 32.0763Z" fill="#1BC8FF"/>
<path d="M111.404 37.22H105.472C105.466 37.8657 105.609 38.5036 105.89 39.0823C106.118 39.5763 106.481 39.9925 106.935 40.2814C107.389 40.5702 107.915 40.7196 108.449 40.7117C108.785 40.715 109.12 40.6711 109.444 40.5813C109.752 40.4895 110.046 40.3517 110.315 40.1724C110.588 39.9931 110.847 39.7938 111.092 39.576C111.33 39.3642 111.637 39.0764 112.014 38.7125C112.205 38.5651 112.442 38.4928 112.681 38.5088C112.956 38.4959 113.225 38.5889 113.436 38.7695C113.534 38.8633 113.611 38.978 113.661 39.1056C113.711 39.2332 113.733 39.3705 113.725 39.5076C113.703 39.8562 113.593 40.1931 113.406 40.4852C113.152 40.9045 112.822 41.2705 112.434 41.5638C111.94 41.9406 111.389 42.2302 110.802 42.4208C110.072 42.6589 109.31 42.7739 108.545 42.7614C106.597 42.7614 105.083 42.1938 104.001 41.0587C102.919 39.9236 102.379 38.3828 102.38 36.4363C102.369 35.5697 102.503 34.7076 102.774 33.8864C103.019 33.1385 103.416 32.4518 103.939 31.871C104.467 31.3006 105.116 30.8604 105.835 30.5838C106.628 30.2789 107.469 30.128 108.315 30.139C109.501 30.139 110.517 30.3942 111.364 30.9048C112.168 31.3702 112.828 32.0566 113.269 32.886C113.679 33.644 113.898 34.4947 113.906 35.361C113.906 36.1409 113.687 36.6465 113.25 36.8779C112.812 37.1092 112.197 37.2233 111.404 37.22ZM105.472 35.4604H110.97C110.895 34.4013 110.616 33.6084 110.132 33.0815C109.886 32.8192 109.588 32.6133 109.259 32.4773C108.929 32.3414 108.575 32.2785 108.22 32.293C107.872 32.2824 107.526 32.3484 107.205 32.4865C106.884 32.6245 106.596 32.8313 106.36 33.093C105.872 33.6274 105.576 34.4165 105.472 35.4604Z" fill="#1BC8FF"/>
<path d="M119.29 38.2857V40.8763C119.29 41.5052 119.147 41.9761 118.857 42.2906C118.717 42.4449 118.547 42.5668 118.358 42.648C118.168 42.7292 117.964 42.7679 117.759 42.7614C117.556 42.7677 117.354 42.7282 117.168 42.6457C116.981 42.5632 116.815 42.4397 116.681 42.284C116.4 41.9658 116.259 41.4965 116.259 40.8763V32.2409C116.259 30.8473 116.751 30.151 117.736 30.1521C118.24 30.1521 118.602 30.315 118.825 30.6409C119.048 30.9668 119.169 31.4474 119.191 32.0828C119.48 31.5408 119.858 31.0531 120.307 30.6409C120.688 30.315 121.197 30.1521 121.834 30.1521C122.482 30.1556 123.12 30.3236 123.689 30.6409C124.288 30.9668 124.588 31.3985 124.588 31.9362C124.593 32.1112 124.561 32.2852 124.495 32.4467C124.429 32.6083 124.331 32.7536 124.205 32.8731C123.988 33.1024 123.691 33.2348 123.378 33.2413C123.103 33.2015 122.833 33.1311 122.573 33.0311C122.21 32.9022 121.829 32.8313 121.445 32.8209C121.052 32.8042 120.666 32.9313 120.356 33.1794C120.045 33.4654 119.819 33.8344 119.701 34.245C119.533 34.7895 119.426 35.352 119.383 35.9215C119.322 36.5689 119.291 37.357 119.29 38.2857Z" fill="#1BC8FF"/>
</svg>
