<svg width="38" height="38" viewBox="0 0 38 38" fill="none" xmlns="http://www.w3.org/2000/svg">
<path d="M19 0C8.64793 0 0 8.61923 0 19C0 29.3521 8.61923 38 19 38C29.3521 38 38 29.3808 38 19C38 8.64793 29.3808 0 19 0ZM30.808 7.19197C37.1647 13.5484 37.4176 23.3621 31.5696 29.9954L27.7842 26.2099C28.4768 24.9972 28.8754 23.6532 28.9349 22.2813C29.0366 19.926 28.1573 17.5142 26.3923 15.3065L24.3098 12.7016L24.4275 16.614C24.4681 17.9714 23.6735 19.1136 22.5709 19.6285C23.0145 17.9273 23.3508 16.262 23.2363 14.4709C22.9861 10.5605 20.6856 7.55466 19.0165 5.16458C17.6664 8.10869 16.7685 10.3219 14.0601 12.4856L8.00461 6.43036C11.183 3.62802 15.0913 2.22569 19 2.22569C23.2487 2.22569 27.4975 3.88112 30.808 7.19197ZM13.8719 15.4462L19.7909 21.3654L19.5923 22.0902L20.5557 22.1299L24.8647 26.4393C24.8473 26.4575 24.8305 26.4764 24.8131 26.4946C22.4938 28.925 18.0789 30.0925 14.466 27.4699C11.6361 25.4159 10.5683 21.7368 11.8095 18.3152C12.3244 16.8955 12.997 16.1591 13.8719 15.4462ZM20.4626 18.8884L15.6436 14.0694C16.7871 13.1358 18.0595 11.8776 19.3299 9.62988C21.5052 13.364 21.2471 15.835 20.4626 18.8884ZM23.305 21.7307C24.5737 21.2025 25.5426 20.2516 26.1076 19.0864C26.975 21.1376 26.8147 23.0235 26.1262 24.5516L23.305 21.7307ZM7.19197 30.808C0.835251 24.4516 0.582153 14.6379 6.43036 8.00461L12.2905 13.8647C11.2882 14.7069 10.3799 15.7265 9.71628 17.5559C8.13333 21.9206 9.51653 26.6289 13.1582 29.2718C17.4365 32.3771 23.0635 31.5528 26.4239 28.0321C26.4294 28.0263 26.4346 28.0202 26.4401 28.0147L29.9954 31.5696C23.3621 37.4176 13.5484 37.1645 7.19197 30.808Z" fill="#02ACD1"/>
</svg>
