<svg width="45" height="31" viewBox="0 0 45 31" fill="none" xmlns="http://www.w3.org/2000/svg">
<g clip-path="url(#clip0_1511_70)">
<path d="M14.1953 31L12.8477 31C11.2206 31 9.85927 29.6893 9.54621 27.9531L7.45703 27.9531C4.85619 27.9531 2.74024 25.5612 2.74024 22.6211L2.74023 8.8086C2.74023 8.38792 3.04193 8.04688 3.41406 8.04688C5.27181 8.04688 6.7832 9.75541 6.7832 11.8555L6.7832 22.6211C6.7832 23.0411 7.08548 23.3828 7.45703 23.3828L9.47852 23.3828L9.47852 8.8086C9.47852 6.70854 10.9899 5 12.8477 5L14.1953 5C14.5674 5 14.8691 5.34105 14.8691 5.76172L14.8691 6.49846C16.3013 6.39537 17.717 5.96642 19.0001 5.24121L19.2846 5.08039C19.4935 4.96237 19.7415 4.97497 19.9402 5.11375C20.1388 5.25259 20.2598 5.49776 20.2598 5.76172L20.2598 30.2383C20.2598 30.5022 20.1388 30.7474 19.9402 30.8863C19.7415 31.025 19.4935 31.0376 19.2846 30.9196L19 30.7587C17.717 30.0336 16.3013 29.6046 14.8691 29.5016L14.8691 30.2383C14.8691 30.659 14.5674 31 14.1953 31V31ZM12.8477 6.52344C11.733 6.52344 10.8262 7.54856 10.8262 8.8086L10.8262 24.1445C10.8262 24.5652 10.5245 24.9063 10.1523 24.9063L7.45703 24.9063C6.34239 24.9063 5.43555 23.8811 5.43555 22.6211L5.43555 11.8555C5.43555 10.8623 4.87227 10.0152 4.08789 9.70082L4.08789 22.6211C4.08789 24.7212 5.59929 26.4297 7.45703 26.4297L10.1523 26.4297C10.5245 26.4297 10.8262 26.7707 10.8262 27.1914C10.8262 28.4514 11.733 29.4766 12.8477 29.4766L13.5215 29.4766L13.5215 6.52344L12.8477 6.52344ZM18.9121 29.0365L18.9121 24.8555L18.2383 24.8555C17.8661 24.8555 17.5645 24.5144 17.5645 24.0938C17.5645 23.6731 17.8661 23.332 18.2383 23.332L18.9121 23.332L18.9121 18.7617L18.2383 18.7617C17.8661 18.7617 17.5645 18.4207 17.5645 18C17.5645 17.5793 17.8661 17.2383 18.2383 17.2383L18.9121 17.2383L18.9121 12.668L18.2383 12.668C17.8661 12.668 17.5645 12.3269 17.5645 11.9063C17.5645 11.4856 17.8661 11.1445 18.2383 11.1445L18.9121 11.1445L18.9121 6.96351C17.6321 7.57522 16.2566 7.93577 14.8691 8.02453L14.8691 27.9755C16.2566 28.0642 17.6321 28.4248 18.9121 29.0365Z" fill="#02ACD1"/>
</g>
<path d="M36.4052 8.51301C36.3221 8.05322 36.1084 7.65155 35.8125 7.35087V7.26562C35.8125 6.99855 36.0088 6.78125 36.25 6.78125C37.9387 6.78125 39.3125 5.26019 39.3125 3.39062C39.3125 1.52106 37.9387 0 36.25 0H25.3125C24.8292 0 24.4375 0.433758 24.4375 0.96875V1.45312H23.5625C23.0792 1.45312 22.6875 1.88688 22.6875 2.42188V4.35938C22.6875 4.89437 23.0792 5.32812 23.5625 5.32812H24.4375V5.8125C24.4375 6.34749 24.8292 6.78125 25.3125 6.78125H26.5638C26.3687 8.33603 25.7114 9.81338 24.6938 10.94C24.3521 11.3183 24.3521 11.9317 24.6938 12.31C25.0355 12.6883 25.5895 12.6883 25.9312 12.31C27.2754 10.8218 28.1228 8.84765 28.3267 6.78119H28.8125C29.127 6.78119 29.4024 6.96646 29.5567 7.24292C29.104 7.63781 28.8125 8.24945 28.8125 8.93551C28.8125 11.6076 27.7982 14.1829 26.0296 16.001C23.9056 18.1845 22.6875 21.2773 22.6875 24.4864V28.0938C22.6875 29.6962 23.8651 31 25.3125 31H35.8125C37.2599 31 38.4375 29.6962 38.4375 28.0938C38.4375 18.4806 38.6542 20.9633 36.4052 8.51301V8.51301ZM28.8125 4.84375H26.1875C26.1875 3.98392 26.1875 2.79799 26.1875 1.9375H36.25C36.9737 1.9375 37.5625 2.58935 37.5625 3.39062C37.5625 4.1919 36.9737 4.84375 36.25 4.84375C35.1937 4.84375 34.3097 5.67718 34.1065 6.78125H31.2875C30.9264 5.65356 29.9533 4.84375 28.8125 4.84375V4.84375ZM36.6875 28.0938C36.6875 28.6279 36.295 29.0625 35.8125 29.0625H25.3125C24.83 29.0625 24.4375 28.6279 24.4375 28.0938V24.4864C24.4375 21.8143 25.4518 19.239 27.2204 17.4208C29.3444 15.2373 30.5625 12.1446 30.5625 8.93551C30.5625 8.81599 30.6503 8.71875 30.7583 8.71875H34.4972C34.5901 8.71875 34.671 8.79207 34.6892 8.893C36.9119 21.1978 36.6875 18.6272 36.6875 28.0938Z" fill="#02ACD1"/>
<defs>
<clipPath id="clip0_1511_70">
<rect width="26" height="23" fill="white" transform="matrix(4.37114e-08 1 1 -4.37114e-08 0 5)"/>
</clipPath>
</defs>
</svg>
