<svg width="35" height="31" viewBox="0 0 35 31" fill="none" xmlns="http://www.w3.org/2000/svg">
<path d="M34.2528 18.2187C34.2528 17.6136 34.0764 17.0492 33.7735 16.5729C34.5179 16.0103 35.0001 15.117 35.0001 14.1109C35.0001 12.4146 33.6201 11.0347 31.9239 11.0347H23.9946L25.0434 5.97499C25.28 4.93894 25.0937 3.87684 24.5183 2.98276C23.9405 2.08514 23.0461 1.47435 21.9996 1.26298L19.3524 0.728271L17.8274 5.41376C17.4556 6.51619 16.6982 7.44725 15.6944 8.03562L11.9677 10.2201H10.2481V8.12038H0V30.2718H10.2482V28.1718L12.1272 28.1711L17.8381 29.5168H17.9573H29.6985C31.3947 29.5168 32.7747 28.1368 32.7747 26.4343C32.7747 25.8252 32.596 25.2574 32.2893 24.7791C33.0268 24.216 33.5039 23.3271 33.5039 22.3265C33.5039 21.7217 33.3278 21.1577 33.0252 20.6815C33.7701 20.119 34.2528 19.2254 34.2528 18.2187ZM8.19745 28.221H2.05078V10.1711H8.19745V10.22V28.1724V28.221ZM29.6985 27.466H18.0763L12.3651 26.1202L10.2482 26.1209V12.2708H12.5245L16.7314 9.80482C18.1638 8.96523 19.2438 7.63619 19.7729 6.06242L20.737 3.10007L21.5935 3.27309C22.0921 3.37385 22.5184 3.66485 22.7938 4.09265C23.069 4.52037 23.1574 5.0289 23.0426 5.5245L21.9003 11.0346H20.0447V13.0854H31.9238C32.4892 13.0854 32.9492 13.5454 32.9492 14.1171C32.9492 14.6825 32.4892 15.1425 31.9238 15.1425H25.9956V17.1932H31.1766C31.742 17.1932 32.202 17.6532 32.202 18.2249C32.202 18.7903 31.742 19.2502 31.1766 19.2502H25.2466V21.301H30.4277C30.9931 21.301 31.4531 21.761 31.4531 22.3327C31.4531 22.8981 30.9931 23.3581 30.4277 23.3581H24.5175V25.4089H29.6985C30.2639 25.4089 30.7239 25.8689 30.7239 26.4406C30.7239 27.006 30.2639 27.466 29.6985 27.466Z" fill="#02ACD1"/>
</svg>
