<svg width="34" height="38" viewBox="0 0 34 38" fill="none" xmlns="http://www.w3.org/2000/svg">
<path d="M17.6577 37.4203C18.0908 37.4863 18.5257 37.3129 18.7949 36.9674C20.9201 34.2389 22.3179 30.9617 22.8057 27.4618C26.3247 27.5354 29.7862 26.6818 32.8287 25.011C33.2125 24.8001 33.4527 24.3983 33.4565 23.9601C33.5333 14.8755 27.5971 6.91926 19.0998 4.25443C14.9215 2.94422 10.8405 4.25309 8.20223 7.44823C6.22493 5.58052 4.4512 3.56442 2.90015 1.41755C2.48681 0.845485 1.67263 0.745843 1.13275 1.20581C0.657196 1.61097 0.565401 2.32026 0.937655 2.83548C2.58966 5.12207 4.4786 7.26675 6.58419 9.2505C2.35145 11.0549 -0.226924 15.234 0.482719 20.1158C1.76423 28.9313 8.67896 36.0536 17.6577 37.4203V37.4203ZM18.3754 6.56479C25.661 8.84933 30.7805 15.522 31.0269 23.2212C24.0562 26.6808 15.8626 25.06 10.5642 19.7531C7.78772 16.972 7.78959 13.6389 8.76796 11.1854C11.3926 13.3726 14.2031 15.2475 17.1934 16.8964L18.6751 20.7621C18.9143 21.3864 19.6144 21.6985 20.2387 21.4592C20.8632 21.2199 21.1752 20.5198 20.9358 19.8956L20.4225 18.5563C21.97 19.2969 23.5767 19.9919 25.2389 20.6385C25.8619 20.881 26.5635 20.5723 26.806 19.9493C27.0484 19.3261 26.7397 18.6246 26.1167 18.3821C22.1846 16.8524 18.58 15.0474 15.3623 12.999L17.8691 12.0178C18.4915 11.7741 18.7989 11.0719 18.5552 10.4492C18.3115 9.82664 17.6092 9.51948 16.9866 9.76314L12.9305 11.3507C11.9159 10.6189 10.9556 9.86848 10.0074 9.06409C11.9884 6.604 15.0765 5.53028 18.3754 6.56479ZM2.87872 19.7675C2.43625 16.7237 3.6052 14.0716 5.9163 12.393C5.30979 15.8044 6.43231 19.0414 8.85079 21.4638C11.9266 24.5446 15.9749 26.6278 20.3892 27.2629C19.9825 30.0234 18.9242 32.6498 17.3141 34.9042C9.71166 33.4301 3.97076 27.2811 2.87872 19.7675V19.7675Z" fill="#02ACD1"/>
</svg>
