<svg width="35" height="35" viewBox="0 0 35 35" fill="none" xmlns="http://www.w3.org/2000/svg">
<path d="M30.6798 18.5254H33.9746C34.5409 18.5254 35 18.0663 35 17.5V7.61523C35 7.04895 34.5409 6.58984 33.9746 6.58984H25.1152V4.32031C25.1152 1.93806 23.1771 0 20.7949 0C18.4127 0 16.4746 1.93813 16.4746 4.32031V6.58984H7.61523C7.04895 6.58984 6.58984 7.04895 6.58984 7.61523V16.4746H4.32031C1.93813 16.4746 0 18.4127 0 20.7949C0 23.1771 1.93813 25.1152 4.32031 25.1152H6.58984V33.9746C6.58984 34.5409 7.04895 35 7.61523 35H17.5C18.0663 35 18.5254 34.5409 18.5254 33.9746V30.6797C18.5254 29.4282 19.5435 28.4102 20.7949 28.4102C22.0463 28.4102 23.0645 29.4283 23.0645 30.6797V33.9746C23.0645 34.5409 23.5236 35 24.0898 35H33.9746C34.5409 35 35 34.5409 35 33.9746V24.0898C35 23.5236 34.5409 23.0645 33.9746 23.0645H30.6798C29.4282 23.0645 28.4102 22.0463 28.4102 20.7949C28.4102 19.5435 29.4282 18.5254 30.6798 18.5254ZM30.6798 25.1152H32.9492V32.9492H25.1152V30.6797C25.1152 28.2974 23.1771 26.3594 20.7949 26.3594C18.4127 26.3594 16.4746 28.2974 16.4746 30.6797V32.9492H8.64062V24.0898C8.64062 23.5236 8.18152 23.0645 7.61523 23.0645H4.32031C3.06886 23.0645 2.05078 22.0463 2.05078 20.7949C2.05078 19.5435 3.06893 18.5254 4.32031 18.5254H7.61523C8.18152 18.5254 8.64062 18.0663 8.64062 17.5V8.64062H17.5C18.0663 8.64062 18.5254 8.18152 18.5254 7.61523V4.32031C18.5254 3.06886 19.5435 2.05078 20.7949 2.05078C22.0463 2.05078 23.0645 3.06893 23.0645 4.32031V7.61523C23.0645 8.18152 23.5236 8.64062 24.0898 8.64062H32.9492V16.4746H30.6798C28.2974 16.4746 26.3594 18.4127 26.3594 20.7949C26.3594 23.1771 28.2974 25.1152 30.6798 25.1152Z" fill="#02ACD1"/>
</svg>
