<svg width="34" height="30" viewBox="0 0 34 30" fill="none" xmlns="http://www.w3.org/2000/svg">
<path d="M33.0039 23.2477H32.6578V15.2269C32.6578 12.7965 30.6806 10.8192 28.2501 10.8192H20.2293V10.6009C20.2293 10.0508 19.7834 9.60479 19.2332 9.60479H14.7668C14.2166 9.60479 13.7707 10.0508 13.7707 10.6009V10.8702H9.65288V6.75237H10.1538C10.704 6.75237 11.1499 6.30639 11.1499 5.75628V1.28979C11.1499 0.739686 10.704 0.293701 10.1538 0.293701H0.996094C0.445984 0.293701 0 0.739686 0 1.28979V5.75628C0 6.30639 0.445984 6.75237 0.996094 6.75237H1.3422V14.7732C1.3422 17.2036 3.31945 19.1808 5.74985 19.1808H13.7707V19.7586C13.7707 20.3087 14.2166 20.7547 14.7668 20.7547H19.2332C19.7834 20.7547 20.2293 20.3087 20.2293 19.7586V19.1298H24.3471V23.2477H23.8462C23.296 23.2477 22.8501 23.6937 22.8501 24.2438V28.7103C22.8501 29.2604 23.296 29.7064 23.8462 29.7064H33.0039C33.554 29.7064 34 29.2604 34 28.7103V24.2438C34 23.6937 33.554 23.2477 33.0039 23.2477ZM1.99219 2.28589H9.15775V4.76019H1.99219V2.28589ZM5.74985 17.1886C4.41794 17.1886 3.33439 16.1051 3.33439 14.7732V6.75237H7.66069V11.8663C7.66069 12.4164 8.10668 12.8623 8.65679 12.8623H13.7707V17.1886H5.74985ZM18.2371 18.7626H15.7629V11.597H18.2371V18.7626ZM25.3432 17.1377H20.2293V12.8114H28.2501C29.5821 12.8114 30.6656 13.895 30.6656 15.2269V23.2477H26.3393V18.1338C26.3393 17.5837 25.8933 17.1377 25.3432 17.1377ZM32.0078 27.7142H24.8422V25.2399H32.0078V27.7142Z" fill="#02ACD1"/>
</svg>
