<svg width="47" height="47" viewBox="0 0 47 47" fill="none" xmlns="http://www.w3.org/2000/svg">
<path d="M10.3412 18.2988L6.33632 21.8211L9.05955 26.4075L7.88395 31.6117L12.7861 33.7191L14.8936 38.6214L20.0978 37.4458L24.6842 40.169L28.2065 36.1641L33.5156 35.6682L34.048 29.97L32.0903 29.7871L31.7095 33.8621L27.246 34.2792L24.2852 37.6455L20.4284 35.3552L16.0545 36.3435L14.2828 32.2223L10.1618 30.4508L11.1499 26.0767L8.85988 22.2201L12.2261 19.2593L12.6432 14.7959L16.718 14.4148L16.5354 12.4573L10.8371 12.9897L10.3412 18.2988Z" fill="#02ACD1"/>
<path d="M16.9756 18.5417L17.0223 18.5884L14.0261 21.5846C12.8914 22.7193 12.8914 24.5658 14.0262 25.7007C14.3854 26.0598 14.8161 26.3051 15.2726 26.4369C15.0666 27.375 15.3269 28.3957 16.0549 29.1236C16.783 29.8517 17.8036 30.112 18.7417 29.906C18.8735 30.3626 19.1188 30.7932 19.478 31.1524C20.275 31.9495 21.4229 32.1861 22.4289 31.8637C22.5683 32.2655 22.7984 32.643 23.119 32.9636C24.2537 34.0983 26.1004 34.0985 27.2353 32.9636L36.6121 23.5868C37.8981 22.3008 38.3604 20.4995 38.0022 18.8415L40.2859 16.5578L38.8956 15.1675L37.1457 16.9173C36.987 16.6981 36.8094 16.4879 36.6119 16.2904L35.4761 15.1546L34.0858 16.5449L35.2216 17.6807C36.4667 18.9258 36.4669 20.9514 35.2218 22.1965L31.4701 25.9481C31.3327 25.6663 31.1479 25.4022 30.9141 25.1684C30.3917 24.646 29.7184 24.3649 29.0332 24.3234C28.9918 23.6382 28.7105 22.9648 28.1882 22.4425C28.0023 22.2566 27.797 22.1016 27.5794 21.9767C27.6513 20.9613 27.301 19.9213 26.5265 19.1469L25.0419 17.6622C26.1353 17.7158 27.8252 17.5639 29.026 16.3632L27.6357 14.9728C26.5363 16.0722 24.4161 15.6146 24.3982 15.6108L23.8672 15.4882L21.9773 17.3782L25.1362 20.5372C25.787 21.188 25.7868 22.2468 25.136 22.8976C24.8536 23.18 24.3944 23.1802 24.112 22.8978L18.3657 17.1515C18.2685 17.0543 18.2685 16.8961 18.3657 16.7989L23.2137 11.9509C24.9447 10.2199 27.761 10.2201 29.4918 11.9509L29.9969 12.456L31.3872 11.0657L30.8821 10.5606C30.6491 10.3276 30.4024 10.1164 30.1448 9.92682L31.8999 8.17174L30.5095 6.78143L28.3017 8.98927C26.0915 8.28742 23.573 8.81096 21.8234 10.5606L16.9754 15.4086C16.1117 16.2723 16.1117 17.6778 16.9756 18.5417ZM15.4165 24.3104C15.0482 23.942 15.0482 23.3431 15.4164 22.9749L18.4124 19.9789L19.7479 21.3143L16.7518 24.3104C16.3836 24.6786 15.7848 24.6786 15.4165 24.3104ZM18.781 27.7335C18.4128 28.1017 17.8134 28.1015 17.4454 27.7335C17.0771 27.3652 17.0771 26.766 17.4454 26.3978L21.1384 22.7048L22.474 24.0405L18.781 27.7335ZM29.5238 26.5588C29.8919 26.9268 29.8919 27.526 29.5237 27.8942L25.8448 31.5731C25.4766 31.9413 24.8773 31.9413 24.5093 31.5733C24.1411 31.2051 24.1411 30.6059 24.5093 30.2376L28.1882 26.5588C28.5564 26.1905 29.1556 26.1905 29.5238 26.5588ZM26.7979 25.1684L22.2039 29.7624C21.8357 30.1307 21.2365 30.1303 20.8684 29.7623C20.5002 29.394 20.5 28.795 20.8683 28.4268L24.2468 25.0482C25.0553 25.1616 25.906 24.9083 26.5263 24.2879C26.6485 24.1657 26.7595 24.0363 26.8607 23.9021C27.1645 24.2729 27.1438 24.8225 26.7979 25.1684Z" fill="#02ACD1"/>
</svg>
