<svg width="33" height="33" viewBox="0 0 33 33" fill="none" xmlns="http://www.w3.org/2000/svg">
<path d="M29.0689 32.6566L32.7168 29.0087C33.0944 28.6311 33.0944 28.0188 32.7168 27.6411L28.8418 23.7661C28.544 23.4683 28.1001 23.4053 27.7405 23.5774L19.9534 15.7903L20.0956 13.5608C20.1111 13.3236 20.0377 13.0881 19.8903 12.901L11.7872 2.60924C10.5779 1.07334 8.92523 0.196792 7.00785 0.0744251C5.06694 -0.0494243 3.31017 0.615919 1.92745 1.99863C0.66098 3.26511 1.8864e-05 4.85149 1.87872e-05 6.61033C1.87806e-05 6.76138 0.00491685 6.91392 0.0147168 7.06749C0.13702 8.9848 1.01351 10.6374 2.54921 11.8467L12.8408 19.9507C13.0279 20.098 13.2629 20.1711 13.5006 20.156L15.9565 19.9993L23.6376 27.6804C23.4654 28.0399 23.5284 28.4839 23.8263 28.7817L27.7013 32.6567C28.0789 33.0343 28.6913 33.0343 29.0689 32.6566ZM18.1419 13.8068L18.0222 15.6819L15.6218 18.0824L13.7468 18.2021L13.0104 17.6221L17.5622 13.0703L18.1419 13.8068ZM3.7458 10.327C2.63844 9.45506 2.03254 8.31688 1.94492 6.94422C1.85673 5.55455 2.31054 4.3508 3.29508 3.36613C4.28729 2.37399 5.49497 1.91585 6.88471 2.0045C8.25737 2.09212 9.39554 2.69808 10.2676 3.80563L16.3572 11.54L11.48 16.4172L3.7458 10.327ZM25.839 28.0591C26.0111 27.6996 25.9481 27.2556 25.6502 26.9577L17.566 18.8735L18.9336 17.5058L27.0179 25.5901C27.3158 25.8879 27.7597 25.9509 28.1192 25.7789L30.6653 28.325L28.3851 30.6052L25.839 28.0591Z" fill="#02ACD1"/>
</svg>
