<svg width="37" height="37" viewBox="0 0 37 37" fill="none" xmlns="http://www.w3.org/2000/svg">
<path d="M18.4981 30.8845C17.8008 30.8845 17.2355 31.4498 17.2355 32.1471V35.7369C17.2355 36.4342 17.8008 36.9995 18.4981 36.9995C19.1955 36.9995 19.7607 36.4342 19.7607 35.7369V32.1471C19.7607 31.4497 19.1954 30.8845 18.4981 30.8845Z" fill="#02ACD1"/>
<path d="M18.4981 6.11581C19.1955 6.11581 19.7607 5.55051 19.7607 4.85322V1.26308C19.7607 0.565793 19.1955 0.000488281 18.4981 0.000488281C17.8008 0.000488281 17.2355 0.565793 17.2355 1.26308V4.85322C17.2355 5.55051 17.8008 6.11581 18.4981 6.11581Z" fill="#02ACD1"/>
<path d="M7.95749 27.2567L5.41816 29.7947C4.92491 30.2876 4.92474 31.0871 5.41766 31.5802C5.66428 31.8268 5.98751 31.9502 6.31073 31.9502C6.63379 31.9502 6.95667 31.8269 7.2033 31.5807L9.74263 29.0427C10.2359 28.5498 10.236 27.7503 9.74313 27.2572C9.24988 26.764 8.45057 26.764 7.95749 27.2567Z" fill="#02ACD1"/>
<path d="M28.1487 10.1119C28.4718 10.1119 28.7948 9.98868 29.0415 9.74222L31.5804 7.20425C32.0735 6.71116 32.0737 5.91186 31.5808 5.41861C31.0877 4.92536 30.2884 4.92519 29.7951 5.41844L27.2561 7.95642C26.7631 8.44933 26.7629 9.2488 27.2558 9.74189C27.5023 9.98868 27.8255 10.1119 28.1487 10.1119Z" fill="#02ACD1"/>
<path d="M6.11498 18.5001C6.11498 17.8029 5.54968 17.2375 4.85239 17.2375H1.26259C0.565304 17.2375 0 17.8029 0 18.5001C0 19.1974 0.565304 19.7627 1.26259 19.7627H4.85239C5.54968 19.7627 6.11498 19.1974 6.11498 18.5001Z" fill="#02ACD1"/>
<path d="M35.7372 17.2375H32.1458C31.4483 17.2375 30.8832 17.8029 30.8832 18.5001C30.8832 19.1974 31.4483 19.7627 32.1458 19.7627H35.7372C36.4347 19.7627 36.9998 19.1974 36.9998 18.5001C36.9998 17.803 36.4347 17.2375 35.7372 17.2375Z" fill="#02ACD1"/>
<path d="M7.95723 9.74226C8.20369 9.98872 8.52691 10.1119 8.84997 10.1119C9.17302 10.1119 9.49624 9.98872 9.7427 9.74226C10.2358 9.24918 10.2358 8.4497 9.7427 7.95662L7.20472 5.41864C6.71164 4.92556 5.91217 4.92556 5.41925 5.41864C4.92617 5.91173 4.92617 6.7112 5.41925 7.20412L7.95723 9.74226Z" fill="#02ACD1"/>
<path d="M29.0429 27.2569C28.5498 26.7638 27.7504 26.7636 27.2573 27.2567C26.764 27.7498 26.764 28.5493 27.2571 29.0422L29.7948 31.5801C30.0414 31.8268 30.3644 31.95 30.6877 31.95C31.0107 31.95 31.334 31.8268 31.5804 31.5803C32.0737 31.0872 32.0737 30.2878 31.5806 29.7948L29.0429 27.2569Z" fill="#02ACD1"/>
<path d="M18.4993 8.67285C13.0808 8.67285 8.67249 13.0815 8.67249 18.5004C8.67249 23.9191 13.0808 28.3275 18.4993 28.3275C23.9184 28.3275 28.327 23.9191 28.327 18.5004C28.327 13.0815 23.9182 8.67285 18.4993 8.67285ZM18.4993 25.8024C14.4732 25.8024 11.1977 22.5267 11.1977 18.5004C11.1977 14.4739 14.4732 11.198 18.4993 11.198C22.526 11.198 25.8018 14.4739 25.8018 18.5004C25.8018 22.5267 22.526 25.8024 18.4993 25.8024Z" fill="#02ACD1"/>
</svg>
