<svg width="36" height="36" viewBox="0 0 36 36" fill="none" xmlns="http://www.w3.org/2000/svg">
<path d="M11.5988 21.094H11.6005C11.6018 21.094 11.6032 21.0938 11.6046 21.0938H30.7266C31.1973 21.0938 31.6112 20.7815 31.7406 20.3288L35.9594 5.5632C36.0503 5.24487 35.9865 4.90265 35.7874 4.63843C35.588 4.37421 35.2763 4.21875 34.9453 4.21875H9.16644L8.41251 0.825897C8.30512 0.343323 7.8772 0 7.38281 0H1.05469C0.472138 0 0 0.472137 0 1.05469C0 1.63724 0.472138 2.10938 1.05469 2.10938H6.53687C6.67035 2.7106 10.1448 18.3458 10.3447 19.2453C9.22385 19.7325 8.4375 20.8501 8.4375 22.1484C8.4375 23.8931 9.85693 25.3125 11.6016 25.3125H30.7266C31.3091 25.3125 31.7813 24.8404 31.7813 24.2578C31.7813 23.6753 31.3091 23.2031 30.7266 23.2031H11.6016C11.0201 23.2031 10.5469 22.7299 10.5469 22.1484C10.5469 21.5678 11.0185 21.0954 11.5988 21.094ZM33.547 6.32812L29.9309 18.9844H12.4475L9.63501 6.32812H33.547Z" fill="#02ACD1"/>
<path d="M10.5469 28.4766C10.5469 30.2212 11.9663 31.6406 13.7109 31.6406C15.4556 31.6406 16.875 30.2212 16.875 28.4766C16.875 26.7319 15.4556 25.3125 13.7109 25.3125C11.9663 25.3125 10.5469 26.7319 10.5469 28.4766ZM13.7109 27.4219C14.2924 27.4219 14.7656 27.8951 14.7656 28.4766C14.7656 29.058 14.2924 29.5312 13.7109 29.5312C13.1295 29.5312 12.6562 29.058 12.6562 28.4766C12.6562 27.8951 13.1295 27.4219 13.7109 27.4219Z" fill="#02ACD1"/>
<path d="M25.4531 28.4766C25.4531 30.2212 26.8726 31.6406 28.6172 31.6406C30.3618 31.6406 31.7812 30.2212 31.7812 28.4766C31.7812 26.7319 30.3618 25.3125 28.6172 25.3125C26.8726 25.3125 25.4531 26.7319 25.4531 28.4766ZM28.6172 27.4219C29.1986 27.4219 29.6719 27.8951 29.6719 28.4766C29.6719 29.058 29.1986 29.5312 28.6172 29.5312C28.0357 29.5312 27.5625 29.058 27.5625 28.4766C27.5625 27.8951 28.0357 27.4219 28.6172 27.4219Z" fill="#02ACD1"/>
</svg>
