<svg width="33" height="33" viewBox="0 0 33 33" fill="none" xmlns="http://www.w3.org/2000/svg">
<g clip-path="url(#clip0_315_46)">
<path d="M5.20434 22.728L6.54275 21.9433C7.13818 21.5941 7.87562 21.5981 8.46703 21.9538L9.71933 22.7066C10.3243 23.0704 11.0046 23.2525 11.6854 23.2525C12.3518 23.2525 13.0188 23.0777 13.6152 22.728L14.9536 21.9433C15.5491 21.5941 16.2865 21.5981 16.8782 21.9538L18.1302 22.7066C19.3281 23.4267 20.8209 23.4348 22.0264 22.728L23.3648 21.9433C23.9602 21.5941 24.6974 21.5981 25.289 21.9538L26.5411 22.7066C27.739 23.4267 29.2318 23.4348 30.4372 22.728L31.7769 21.9425L30.799 20.2745L29.4591 21.0601C28.8647 21.4088 28.1283 21.4047 27.5376 21.0495L26.2853 20.2967C25.2742 19.6887 24.0523 19.5877 22.9705 19.9963V5.20006C22.9705 3.3989 24.4358 1.93359 26.237 1.93359H27.8762V0H26.2367C23.3695 0 21.0369 2.33265 21.0369 5.20006V6.78067H12.9271V5.20006C12.9271 3.3989 14.3924 1.93359 16.1936 1.93359H17.8329V0H16.1936C13.3262 0 10.9935 2.33265 10.9935 5.20006V21.1859C10.8984 21.1482 10.8052 21.1034 10.7156 21.0495L9.46353 20.2967C8.26511 19.5761 6.7711 19.5678 5.56487 20.2753L4.22621 21.0601C3.63178 21.4088 2.89536 21.4047 2.3047 21.0495L1.06071 20.3017L0.0644531 21.9589L1.30845 22.7066C2.50612 23.4267 3.99886 23.4348 5.20434 22.728ZM19.1267 21.0495L17.8744 20.2967C16.676 19.5761 15.182 19.5678 13.9758 20.2753L12.9271 20.8901V15.6332H21.0369V21.0664C20.4442 21.4085 19.7136 21.4025 19.1267 21.0495ZM21.0366 8.71426V13.6996H12.9271V8.71426H21.0366Z" fill="#02ACD1"/>
<path d="M5.20434 27.6017L6.54275 26.817C7.13818 26.4678 7.87562 26.4718 8.46703 26.8275L9.71933 27.5803C10.917 28.3004 12.4097 28.3085 13.6152 27.6017L14.9536 26.817C15.5491 26.4678 16.2865 26.4718 16.8782 26.8275L18.1302 27.5803C19.3279 28.3004 20.8206 28.3087 22.0264 27.6017L23.3648 26.817C23.9602 26.4678 24.6974 26.4718 25.289 26.8275L26.5411 27.5803C27.1463 27.9441 27.8266 28.1262 28.5072 28.1262C29.1739 28.1262 29.8408 27.9514 30.4372 27.6017L31.7769 26.8162L30.7988 25.1482L29.4591 25.9338C28.8644 26.2825 28.1283 26.2784 27.5376 25.9232L26.2853 25.1704C25.0869 24.4496 23.5931 24.4415 22.3866 25.149L21.0482 25.9338C20.4538 26.2825 19.7174 26.2784 19.1267 25.9232L17.8747 25.1704C16.676 24.4496 15.182 24.4415 13.9758 25.149L12.6373 25.9338C12.0429 26.2825 11.3065 26.2784 10.7158 25.9232L9.46378 25.1704C8.26511 24.4496 6.7711 24.4415 5.56487 25.149L4.22646 25.9338C3.63178 26.2825 2.89561 26.2784 2.30495 25.9232L1.06096 25.1754L0.0644531 26.8323L1.30845 27.5803C2.50612 28.3004 3.99886 28.3087 5.20434 27.6017Z" fill="#02ACD1"/>
<path d="M29.4591 30.8077C28.8644 31.1564 28.1283 31.1523 27.5376 30.7971L26.2853 30.0443C25.0869 29.3235 23.5929 29.3152 22.3866 30.0226L21.0482 30.8077C20.4535 31.1564 19.7174 31.1523 19.1267 30.7971L17.8744 30.0443C16.676 29.3235 15.182 29.3154 13.9758 30.0226L12.6373 30.8077C12.0429 31.1561 11.3065 31.1523 10.7158 30.7971L9.46353 30.0443C8.26511 29.3235 6.7711 29.3154 5.56487 30.0226L4.22646 30.8077C3.63178 31.1561 2.89561 31.1523 2.30495 30.7971L1.06096 30.0491L0.0644531 31.7062L1.30845 32.4542C2.50587 33.1741 3.99886 33.1824 5.20434 32.4756L6.54275 31.6906C7.13818 31.3414 7.87562 31.3457 8.46703 31.7012L9.71933 32.4542C10.917 33.1743 12.4097 33.1824 13.6152 32.4756L14.9536 31.6906C15.5491 31.3414 16.2865 31.3457 16.8782 31.7012L18.1302 32.4542C19.3279 33.1741 20.8206 33.1824 22.0264 32.4756L23.3648 31.6906C23.9602 31.3414 24.6974 31.3457 25.289 31.7012L26.5411 32.4542C27.1463 32.8181 27.8266 33.0001 28.5072 33.0001C29.1739 33.0001 29.8408 32.8254 30.4372 32.4756L31.7769 31.6899L30.7988 30.0219L29.4591 30.8077Z" fill="#02ACD1"/>
</g>
<defs>
<clipPath id="clip0_315_46">
<rect width="33" height="33" fill="white"/>
</clipPath>
</defs>
</svg>
