<svg width="34" height="34" viewBox="0 0 34 34" fill="none" xmlns="http://www.w3.org/2000/svg">
<path d="M29.1523 0.996094C29.1523 0.445984 28.7064 0 28.1562 0H5.84375C5.29364 0 4.84766 0.445984 4.84766 0.996094V25.5C4.84766 25.8331 5.01414 26.1441 5.29125 26.3288L16.4475 33.8327C16.7821 34.0557 17.2179 34.0557 17.5526 33.8327L28.7088 26.3288C28.9859 26.1441 29.1524 25.833 29.1524 25.5C29.1523 24.1312 29.1523 1.80897 29.1523 0.996094ZM6.83984 18.8612L16.4475 25.2663C16.7821 25.4893 17.2179 25.4893 17.5526 25.2663L27.1602 18.8612V20.7169L17 27.4903L6.83984 20.7169V18.8612ZM27.1602 1.99219V16.467L17 23.2404L6.83984 16.467V1.99219H27.1602ZM17 31.8068L6.83984 24.967V23.1112L16.4475 29.5163C16.7821 29.7394 17.2179 29.7394 17.5526 29.5163L27.1602 23.1112V24.9669L17 31.8068Z" fill="#02ACD1"/>
<path d="M10.3946 10.4922L13.5296 12.7699L12.3322 16.4553C12.1988 16.8658 12.3449 17.3154 12.694 17.569C13.0431 17.8226 13.5159 17.8226 13.865 17.569L17.0001 15.2913L20.1352 17.5691C20.4843 17.8227 20.9571 17.8226 21.3061 17.5691C21.6553 17.3154 21.8014 16.8658 21.668 16.4554L20.4705 12.7699L23.6056 10.4922C23.9547 10.2385 24.1008 9.78888 23.9674 9.37849C23.8341 8.96803 23.4516 8.69019 23.0201 8.69019H19.1449L17.9474 5.00471C17.8141 4.59432 17.4316 4.31641 17.0001 4.31641C16.5686 4.31641 16.1861 4.59432 16.0527 5.00471L14.8552 8.69019H10.9801C10.5486 8.69019 10.1661 8.9681 10.0327 9.37849C9.89933 9.78888 10.0454 10.2385 10.3946 10.4922ZM15.579 10.6824C16.0105 10.6824 16.393 10.4045 16.5263 9.99407L17.0001 8.53592L17.4739 9.99407C17.6072 10.4045 17.9897 10.6824 18.4212 10.6824H19.9545L18.7141 11.5835C18.3649 11.8372 18.2188 12.2868 18.3522 12.6972L18.8261 14.1554L17.5856 13.2542C17.2365 13.0005 16.7637 13.0006 16.4146 13.2542L15.1742 14.1554L15.648 12.6972C15.7814 12.2868 15.6353 11.8372 15.2861 11.5835L14.0457 10.6824H15.579Z" fill="#02ACD1"/>
</svg>
