<svg width="38" height="38" viewBox="0 0 38 38" fill="none" xmlns="http://www.w3.org/2000/svg">
<g clip-path="url(#clip0_315_0)">
<path d="M37.4637 6.53802C36.9234 5.60242 36.0497 4.93897 35.0032 4.67008C33.9568 4.40111 32.8713 4.5612 31.947 5.12059L25.0072 9.32003L16.7443 3.88989L9.8842 7.79959L16.2999 14.589L10.22 18.2681L6.51363 16.5928L1.02441 19.762L7.93188 24.4745L12.8957 24.7L35.933 12.0244C36.8796 11.5035 37.5608 10.6436 37.8512 9.60288C38.1416 8.56218 38.004 7.47369 37.4637 6.53802ZM35.7066 9.00453C35.5784 9.46409 35.2776 9.84379 34.8596 10.0737L12.3711 22.4474L8.66434 22.279L5.20523 19.9191L6.6375 19.0921L10.3705 20.7795L19.8132 15.0653L13.4492 8.33047L16.6616 6.49965L24.9583 11.9519L33.0997 7.02526C33.5079 6.77834 33.9871 6.70776 34.4491 6.82636C34.9112 6.94511 35.297 7.23797 35.5355 7.65115C35.7741 8.0644 35.8349 8.54504 35.7066 9.00453Z" fill="#02ACD1"/>
<path d="M33.7703 31.8838H0V34.1103H33.7703V31.8838Z" fill="#02ACD1"/>
</g>
<defs>
<clipPath id="clip0_315_0">
<rect width="38" height="38" fill="white"/>
</clipPath>
</defs>
</svg>
