<svg width="30" height="31" viewBox="0 0 30 31" fill="none" xmlns="http://www.w3.org/2000/svg">
<path d="M22.5 0V16.4688H20.625V9.91322L11.25 15.7257V9.91322L0 16.8882V31H30V0H22.5ZM7.5 29.0625H5.625V23.25H7.5V29.0625ZM11.25 29.0625H9.375V23.25H11.25V29.0625ZM28.125 29.0625H13.125V21.3125H3.75V29.0625H1.875V17.9858L9.375 13.3358V19.1483L18.75 13.3358V18.4062H28.125V29.0625ZM28.125 16.4688H24.375V5.8125H28.125V16.4688ZM28.125 3.875H24.375V1.9375H28.125V3.875Z" fill="#02ACD1"/>
<path d="M16.875 21.3125H15V23.25H16.875V21.3125Z" fill="#02ACD1"/>
<path d="M20.625 21.3125H18.75V23.25H20.625V21.3125Z" fill="#02ACD1"/>
<path d="M24.375 21.3125H22.5V23.25H24.375V21.3125Z" fill="#02ACD1"/>
<path d="M16.875 25.1875H15V27.125H16.875V25.1875Z" fill="#02ACD1"/>
<path d="M20.625 25.1875H18.75V27.125H20.625V25.1875Z" fill="#02ACD1"/>
<path d="M24.375 25.1875H22.5V27.125H24.375V25.1875Z" fill="#02ACD1"/>
</svg>
