<svg width="33" height="33" viewBox="0 0 33 33" fill="none" xmlns="http://www.w3.org/2000/svg">
<path d="M32.0332 15.5332H25.2012V0.966797C25.2012 0.432867 24.7683 0 24.2344 0H8.76562C8.2317 0 7.79883 0.432867 7.79883 0.966797V15.5332H0.966797C0.432867 15.5332 0 15.9661 0 16.5V32.0332C0 32.5671 0.432867 33 0.966797 33H32.0332C32.5671 33 33 32.5671 33 32.0332V16.5C33 15.9661 32.5671 15.5332 32.0332 15.5332ZM9.73242 1.93359H23.2676V15.5332H9.73242V1.93359ZM1.93359 17.4668H15.5332V31.0664H1.93359V17.4668ZM31.0664 31.0664H17.4668V17.4668H31.0664V31.0664Z" fill="#02ACD1"/>
<path d="M18.8028 11.6662L19.5024 13.0654C20.0708 14.2021 21.8043 13.3455 21.2319 12.2006L17.3647 4.46621C17.0068 3.75033 15.9871 3.76245 15.6352 4.46621L11.768 12.2006C11.1963 13.3441 12.9251 14.2102 13.4975 13.0654L14.1971 11.6662H18.8028ZM15.1639 9.73261L16.5 7.06045L17.836 9.73261H15.1639Z" fill="#02ACD1"/>
<path d="M9.73242 19.4004H5.86523C5.3313 19.4004 4.89844 19.8333 4.89844 20.3672V28.1016C4.89844 28.6355 5.3313 29.0684 5.86523 29.0684H9.73242C11.3317 29.0684 12.6328 27.7672 12.6328 26.168C12.6328 25.4257 12.3522 24.7479 11.8919 24.2344C12.3522 23.7208 12.6328 23.0431 12.6328 22.3008C12.6328 20.7015 11.3317 19.4004 9.73242 19.4004ZM6.83203 21.334H9.73242C10.2655 21.334 10.6992 21.7677 10.6992 22.3008C10.6992 22.8339 10.2655 23.2676 9.73242 23.2676H6.83203V21.334ZM9.73242 27.1348H6.83203V25.2012H9.73242C10.2655 25.2012 10.6992 25.6349 10.6992 26.168C10.6992 26.7011 10.2655 27.1348 9.73242 27.1348Z" fill="#02ACD1"/>
<path d="M19.4004 24.2344C19.4004 26.8998 21.5689 29.0684 24.2344 29.0684C25.5256 29.0684 26.7395 28.5656 27.6525 27.6525C28.5563 26.7487 27.1905 25.3802 26.2853 26.2853C25.7374 26.8331 25.0091 27.1348 24.2344 27.1348C22.6351 27.1348 21.334 25.8337 21.334 24.2344C21.334 22.6351 22.6351 21.334 24.2344 21.334C25.0091 21.334 25.7374 21.6357 26.2853 22.1835C27.1891 23.0874 28.5576 21.7213 27.6525 20.8162C26.7395 19.9032 25.5256 19.4004 24.2344 19.4004C21.5689 19.4004 19.4004 21.5689 19.4004 24.2344Z" fill="#02ACD1"/>
</svg>
