<svg width="29" height="29" viewBox="0 0 29 29" fill="none" xmlns="http://www.w3.org/2000/svg">
<g clip-path="url(#clip0_317_27)">
<path d="M22.1268 0C19.3027 0 16.9561 2.08408 16.5442 4.79505H1.89624L1.22607 6.17268L11.3757 19.1086V26.0428C11.3757 26.734 10.8133 27.2963 10.1221 27.2963H5.91135V29H18.5436V27.2963H14.3329C13.6416 27.2963 13.0793 26.734 13.0793 26.0428V19.1086L19.6567 10.7255C20.4221 11.0986 21.2628 11.2937 22.1269 11.2937C25.2406 11.2937 27.7738 8.76053 27.7738 5.64682C27.7738 2.53311 25.2406 0 22.1268 0V0ZM20.8076 6.4987L18.3676 9.6085C17.7965 9.22841 17.1472 9.02539 16.467 9.02539C15.4094 9.02539 14.4253 9.51377 13.6965 10.4L13.6778 10.4227C13.2782 10.9086 12.7615 11.1761 12.2228 11.1761C11.6841 11.1761 11.1675 10.9086 10.7684 10.4232L10.7496 10.4004C10.0204 9.51372 9.03636 9.02539 7.97874 9.02539C7.30097 9.02539 6.6538 9.22688 6.08404 9.60446L3.64725 6.4987H20.8076ZM17.3087 10.9581L12.2275 17.4343L7.14332 10.9544C7.40563 10.8072 7.68894 10.729 7.97879 10.729C8.51743 10.729 9.03415 10.9966 9.43405 11.4828L9.45206 11.5047C10.1812 12.3914 11.1653 12.8797 12.2229 12.8797C13.2805 12.8797 14.2645 12.3914 14.9942 11.5042L15.012 11.4824C15.4116 10.9965 15.9283 10.7289 16.467 10.7289C16.7591 10.729 17.0446 10.8083 17.3087 10.9581ZM22.1268 9.59004C21.6493 9.59004 21.1823 9.50452 20.7435 9.34017L23.2288 6.17262L22.5586 4.79499H18.2773C18.6679 3.02898 20.2451 1.70365 22.1268 1.70365C24.3011 1.70365 26.0701 3.47256 26.0701 5.64688C26.0701 7.82119 24.3012 9.59004 22.1268 9.59004Z" fill="#02ACD1"/>
</g>
<defs>
<clipPath id="clip0_317_27">
<rect width="29" height="29" fill="white"/>
</clipPath>
</defs>
</svg>
