<svg width="45" height="69" viewBox="0 0 45 69" fill="none" xmlns="http://www.w3.org/2000/svg">
<g clip-path="url(#clip0_1780_314)">
<path d="M23.9919 25.0743C23.6874 24.5862 21.5561 25.1963 18.5115 26.5995C16.4411 27.5146 14.0054 28.7958 11.387 30.321C11.3261 30.321 11.3261 30.382 11.2652 30.382C4.74964 34.1645 -0.182704 37.886 0.365334 38.7401C0.548013 39.0451 1.40052 38.9231 2.74016 38.496C5.115 37.7029 8.89037 35.8727 13.092 33.4934C14.1272 32.8833 15.0406 32.3342 15.954 31.7852C20.9472 28.6127 24.4181 25.8064 23.9919 25.0743Z" stroke="#39C5F3" stroke-miterlimit="10" stroke-linecap="round"/>
<path d="M23.322 1.83025C23.0784 0.854125 22.774 0.305054 22.4695 0.305054C21.6779 0.305054 21.0081 4.33158 20.7645 9.8223C20.7036 11.1645 20.7036 12.5066 20.7036 13.9708C20.7036 16.6552 20.8254 19.1565 21.0081 21.2918C21.3125 25.0743 21.8606 27.6366 22.5304 27.6366C23.4438 27.6366 24.2354 22.1459 24.2963 15.13C24.2963 14.7639 24.2963 14.3369 24.2963 13.9708C24.2963 8.72415 23.9309 4.14856 23.322 1.83025Z" stroke="#39C5F3" stroke-miterlimit="10" stroke-linecap="round"/>
<path d="M43.3558 36.9098C41.529 35.2626 37.9972 32.8223 33.7347 30.321C30.8727 28.6738 28.1325 27.2706 26.0013 26.2945C23.2002 25.0743 21.3125 24.5252 21.008 25.0133C20.5818 25.7454 24.0527 28.5518 29.0459 31.6632C29.9593 32.2122 30.9336 32.8223 31.9079 33.3714C33.7347 34.4695 35.5615 35.3846 37.1447 36.1777C41.2245 38.191 44.2692 39.2281 44.6345 38.6181C44.8172 38.435 44.3301 37.825 43.3558 36.9098Z" stroke="#39C5F3" stroke-miterlimit="10" stroke-linecap="round"/>
<path d="M24.4181 36.3608L23.8092 25.0743H22.5304H21.1907L20.8863 30.931L18.8159 67.5358C18.8159 68.2069 20.46 68.756 22.4695 68.756C22.6522 68.756 22.8349 68.756 23.0175 68.756C24.7834 68.695 26.184 68.1459 26.184 67.5968L24.4181 36.3608Z" fill="white" stroke="#39C5F3" stroke-miterlimit="10" stroke-linecap="round"/>
<path d="M24.9052 25.9284C24.9052 27.2706 23.8091 28.3077 22.5303 28.3077C21.1907 28.3077 20.1555 27.2095 20.1555 25.9284C20.1555 24.5862 21.2516 23.5491 22.5303 23.5491C23.8091 23.5491 24.9052 24.5862 24.9052 25.9284Z" fill="white" stroke="#39C5F3" stroke-miterlimit="10" stroke-linecap="round"/>
</g>
<defs>
<clipPath id="clip0_1780_314">
<rect width="45" height="69" fill="white"/>
</clipPath>
</defs>
</svg>
