<svg width="422" height="459" viewBox="0 0 422 459" fill="none" xmlns="http://www.w3.org/2000/svg">
<path d="M40.0074 205.498C53.2953 196.467 67.6206 190.902 83.3806 189.555C86.6253 189.29 90.0245 190.063 93.2692 190.792C96.1828 191.454 98.6108 191.476 101.238 189.621C106.91 185.602 113.62 184.675 120.353 184.189C121.942 184.079 122.692 184.056 123.421 182.334C124.061 180.855 126.069 179.971 127.35 178.713C129.071 177.012 131.146 175.444 132.25 173.391C135.141 168.003 138.43 163.255 144.324 160.737C147.723 159.28 148.341 157.028 146.818 153.428C145.449 150.204 143.816 147.069 142.536 143.8C142.205 142.983 142.602 141.769 142.911 140.819C143.75 138.258 144.92 135.784 145.604 133.179C146.09 131.324 146.045 129.381 143.242 129.204C142.69 129.16 142.094 128.696 141.631 128.299C138.187 125.384 137.834 125.384 134.258 128.078C134.987 126.797 135.583 125.428 136.422 124.257C140.042 119.245 143.772 114.298 147.414 109.286C149.091 106.967 150.482 104.582 149.423 101.446C149.136 100.585 149.643 99.3265 150.085 98.3769C152.601 93.0992 155.338 87.9099 157.788 82.566C161.408 74.6163 167.699 68.9191 174.078 63.4206C176.042 61.7423 179.221 61.4552 181.848 60.5719C197.563 55.3163 213.279 50.0607 229.459 44.6506C231.291 50.8115 233.012 56.6854 234.778 62.5373C235.109 63.6635 235.33 64.9442 236.014 65.8496C238.818 69.6257 240.87 73.5784 241.996 78.282C242.791 81.5943 243.475 84.5755 242.835 88.0203C242.195 91.421 242.636 94.8437 244.446 98.0899C247.889 104.339 250.626 110.809 251.333 118.119C251.774 122.712 254.158 123.33 257.866 120.084C258.617 120.901 259.765 121.608 260.074 122.579C261.442 126.974 262.435 131.5 263.826 135.895C265.857 142.387 268.108 148.813 270.271 155.261C272.567 162.107 274.002 169.195 274.509 176.35C275.127 185.006 275.105 193.684 275.37 202.363C275.392 203.003 275.282 203.908 275.635 204.262C279.785 208.17 278.637 213.735 280.094 218.461C282.544 226.388 284.641 234.448 287.025 242.398C287.863 245.225 289.32 247.874 290.159 250.701C290.424 251.606 289.938 253.042 289.32 253.881C288.239 255.36 286.826 256.597 285.48 257.878C283.89 259.401 283.603 261.013 285.656 262.118C288.835 263.818 289.099 266.004 287.621 268.985C286.296 271.613 285.237 274.351 283.979 277.266C282.632 270.951 281.595 265.275 280.16 259.688C279.498 257.105 277.776 254.963 274.752 254.742C273.803 254.676 272.832 255.073 271.883 255.25C272.081 256.133 272.059 257.149 272.501 257.878C274.2 260.704 276.054 263.442 277.864 266.247C267.115 263.862 256.807 261.61 246.543 259.203C245.174 258.871 244.027 257.679 242.68 257.127C240.429 256.222 238.133 255.029 235.771 254.852C229.128 254.322 223.83 249.442 222.925 242.818C222.506 239.77 220.652 237.628 217.606 236.48C215.133 235.552 212.816 234.205 210.454 233.035C207.805 231.732 205.267 230.915 202.088 231.887C177.455 239.417 152.756 246.748 128.078 254.146C118.565 256.994 109.14 260.108 99.56 262.736C88.8326 265.695 77.9507 268.19 67.1791 271.061C55.7895 274.086 44.4441 277.332 33.0545 280.424C31.8184 280.755 30.5161 280.865 28.3751 281.219C27.757 277.288 27.0948 273.534 26.6534 269.736C26.5651 268.941 27.3156 267.969 27.8674 267.219C30.6486 263.398 33.3635 259.512 36.3433 255.846C39.1245 252.401 42.2147 249.199 45.1504 245.887C45.8567 245.07 46.9825 244.253 47.0707 243.325C47.5122 238.865 50.183 235.575 52.4565 231.997C54.1341 229.369 53.8471 226.499 52.1034 224.025C50.2934 221.442 49.1456 218.77 49.4546 215.546C49.6533 213.647 48.5496 212.852 46.7838 212.565C41.0007 211.726 41.0007 211.704 40.0074 205.498Z" fill="#1BC8FF"/>
<path d="M275.988 161.731C273.361 153.561 271 146.406 268.748 139.229C267.004 133.709 265.283 128.166 263.76 122.579C262.81 119.134 260.118 116.529 256.476 115.778C255.615 115.601 254.29 114.497 254.29 113.834C254.335 107.519 250.692 102.617 248.022 97.3831C246.212 93.85 246.455 90.3168 246.565 86.629C246.653 84.1116 246.366 81.5501 245.881 79.0769C244.777 73.5121 241.93 68.7644 239.259 63.7959C236.301 58.2753 235.219 51.7389 233.586 45.5779C233.409 44.9376 234.756 43.3918 235.683 43.0385C250.693 37.4075 265.768 31.9311 280.8 26.3221C284.972 24.7764 289.033 22.9656 293.161 21.3094C295.92 20.1833 297.222 20.9561 297.443 23.9152C297.553 25.4168 297.73 27.0509 297.31 28.4641C296.251 31.9973 297.421 34.9122 299.451 37.5841C303.027 42.3098 302.939 47.0133 299.451 51.6285C297.2 54.6317 294.728 57.4803 292.167 60.2185C290.799 61.676 290.07 62.9347 290.644 65.0987C292.874 73.4017 294.286 81.8372 293.624 90.4934C293.536 91.5755 293.69 92.7458 293.293 93.7175C290.203 101.49 291.351 109.131 293.403 116.948C295.125 123.418 296.251 130.065 297.354 136.668C297.708 138.832 296.736 141.217 297.09 143.381C297.641 146.87 296.803 151.043 302.166 153.075C292.653 156.233 284.309 158.993 275.988 161.731Z" fill="#D3D3D3"/>
<path d="M308.325 0C309.384 2.73821 310.378 5.45434 311.503 8.1263C317.64 22.9215 323.754 37.7387 330 52.4897C334.68 63.5751 339.558 74.5721 344.348 85.5912C344.568 86.077 344.922 86.5407 345.032 87.0486C347.107 97.6261 355.737 103.434 362.072 110.942C363.882 113.084 363.75 116.926 364.412 119.995C364.478 120.26 364.037 120.79 363.706 120.989C357.746 124.434 354.016 129.712 351.234 135.851C350.859 136.668 350.02 137.551 349.182 137.838C344.414 139.516 339.558 140.974 334.768 142.63C330.486 144.109 326.27 145.854 321.966 147.311C317.463 148.835 312.916 150.248 308.369 151.595C305.433 152.457 303.91 150.027 302.762 148.239C301.813 146.759 301.968 144.485 301.857 142.564C301.703 139.914 302.189 137.153 301.681 134.592C300.136 126.642 298.149 118.759 296.56 110.809C295.545 105.686 295.986 100.696 297.178 95.462C298.458 89.8972 298.304 83.9129 298.061 78.1273C297.906 74.1746 296.759 70.2219 295.655 66.3795C294.927 63.8401 295.876 62.5372 297.531 60.7927C302.431 55.6696 307.045 50.2373 306.25 42.4202C306.051 40.5653 305.588 38.4454 304.484 37.0321C301.526 33.256 301.328 29.1487 301.99 24.7101C302.166 23.5839 302.277 22.1928 301.791 21.2653C298.878 15.7889 300.268 10.0254 300.555 4.35022C300.688 1.61201 302.034 -0.3754 305.389 0.220823C306.272 0.397482 307.155 0.110412 308.325 0Z" fill="#D3D3D3"/>
<path d="M234.601 356.078C234.381 357.314 234.447 358.374 234.028 359.191C231.842 363.255 231.732 366.942 233.917 371.337C235.286 374.075 236.279 376.946 238.773 378.69C243.276 381.804 245.77 386.132 247.713 391.1C250.516 398.277 256.542 402.716 262.237 407.397C262.325 407.464 262.413 407.53 262.524 407.552C264.091 408.126 266.784 408.457 267.004 409.341C267.468 411.416 266.762 413.779 266.497 416.009C266.408 416.76 265.857 417.688 266.144 418.173C266.607 418.968 267.998 420.161 268.263 419.984C271.022 418.284 271.816 420.558 273.604 422.325C269.984 423.628 266.806 424.798 263.605 425.902C259.72 427.227 255.791 428.42 251.929 429.833C249.699 430.65 248.441 430.054 247.735 427.846C242.746 412.388 237.758 396.952 232.725 381.517C231.004 376.261 229.017 371.116 227.273 365.86C225.662 361.046 229.127 356.277 234.601 356.078Z" fill="#D3D3D3"/>
<path d="M333.731 253.395C333.643 257.326 336.004 256.465 338.631 256.023C337.417 257.282 336.291 258.695 334.945 259.799C328.963 264.679 322.959 269.515 316.867 274.219C315.587 275.212 313.865 275.654 312.342 276.339C311.371 276.78 310.312 277.089 309.407 277.642C304.021 280.888 298.679 284.2 293.315 287.49C291.903 284.62 290.269 283.869 288.217 285.591C286.561 286.96 285.413 288.926 283.339 290.405C283.339 289.456 283.052 288.418 283.383 287.601C285.48 282.455 287.952 277.575 293.602 275.367C293.889 275.257 294.287 274.947 294.287 274.727C294.419 269.339 299.628 269.316 302.63 267.152C304.352 265.894 307.243 266.335 309.429 265.562C310.952 265.032 312.21 263.774 313.556 262.78C314.064 262.405 314.395 261.698 314.947 261.455C321.105 258.783 327.264 256.177 333.731 253.395Z" fill="#1BC8FF"/>
<path d="M239.193 259.114C237.184 265.783 235.374 271.922 233.498 278.017C233.255 278.834 233.012 279.761 232.461 280.38C229.083 284.222 229.9 287.733 232.836 291.443C233.52 292.304 233.564 294.534 232.902 295.374C231.158 297.582 231.291 299.724 231.997 302.087C232.262 303.014 232.637 303.986 232.615 304.935C232.505 308.8 234.646 310.655 238.111 311.45C238.42 311.516 238.751 311.648 238.994 311.847C245.241 316.595 251.487 321.364 257.734 326.134C257.888 326.267 257.955 326.488 258.22 326.907C255.836 329.69 253.187 332.406 251.024 335.453C249.435 337.683 248.618 340.444 247.205 342.829C246.278 344.396 245.02 345.788 243.718 347.09C242.217 348.57 240.539 349.895 238.884 351.198C238.2 351.75 237.317 352.479 236.544 352.434C229.481 352.037 226.876 353.649 224.139 359.788C223.631 360.958 222.197 362.128 220.939 362.504C206.635 366.81 192.288 370.961 177.963 375.179C164.035 379.264 150.129 383.438 136.201 387.501C124.458 390.924 112.737 394.369 100.929 397.549C91.1282 400.198 81.1954 402.385 71.373 404.924C65.8327 406.359 60.3807 408.214 54.8404 409.628C47.3136 411.571 39.7426 413.315 32.1716 415.104C27.8674 416.12 27.735 416.098 26.7417 411.725C24.9538 403.82 23.3866 395.848 21.5987 387.943C19.1486 376.99 16.6323 366.037 14.0719 355.106C11.3569 343.513 8.50953 331.942 5.81664 320.349C3.78594 311.604 1.88768 302.837 0.0335581 294.049C-0.120952 293.298 0.276359 292.083 0.850253 291.575C7.67076 285.569 14.5575 279.651 21.4442 273.711C21.7753 273.424 22.1285 273.225 22.7465 272.783C23.6515 275.985 24.5565 279.033 25.3511 282.08C26.0133 284.642 27.2052 285.657 30.0526 284.884C41.4201 281.793 52.8318 278.878 64.2434 275.919C72.4104 273.799 80.5994 271.812 88.7664 269.648C93.9756 268.256 99.1185 266.6 104.328 265.165C110.574 263.442 116.887 261.985 123.112 260.196C130.396 258.099 137.591 255.758 144.831 253.572C159.753 249.089 174.718 244.695 189.639 240.19C194.297 238.776 198.799 236.877 203.479 235.619C205.024 235.199 207.011 235.84 208.6 236.458C210.851 237.319 213.081 238.401 215.045 239.748C216.789 240.963 219.151 242.442 219.57 244.209C221.667 252.953 227.296 258.076 236.257 258.628C237.361 258.695 238.486 259.004 239.193 259.114Z" fill="#90E4FD"/>
<path d="M399.839 189.908C399.177 188.318 398.647 186.64 397.764 185.161C397.168 184.123 396.153 182.754 395.248 182.665C394.343 182.599 393.195 183.858 392.4 184.741C391.694 185.536 391.297 186.596 390.789 187.567C388.185 192.602 385.999 198.012 379.157 199.934C378.826 197.24 378.318 194.347 378.119 191.41C377.877 187.832 376.861 187.258 373.727 188.892C371.718 189.93 369.952 189.268 368.783 187.192C366.928 183.902 365.207 180.523 363.022 177.476C362.47 176.703 360.218 176.504 359.071 176.902C355.208 178.249 351.522 180.192 347.659 181.517C342.361 183.328 336.909 184.653 331.59 186.419C326.69 188.053 321.944 190.129 317.044 191.741C310.731 193.817 304.308 195.583 297.951 197.549C292.786 199.161 287.643 200.795 282.544 202.606C280.116 203.467 278.99 203.445 278.946 200.353C278.858 192.227 278.593 184.101 278.218 175.974C278.107 173.611 277.401 171.293 276.982 168.952C276.496 166.28 277.467 164.955 280.248 164.094C296.781 158.971 313.247 153.671 329.714 148.349C336.402 146.185 343.112 144.065 349.601 141.437C351.875 140.51 353.817 138.302 355.428 136.314C358.055 133.068 360.285 129.491 362.757 126.112C363.286 125.384 364.258 124.986 364.854 124.544C368.959 127.658 369.025 135.056 376.972 134.106C370.063 138.898 370.107 146.45 367.966 153.053C366.973 156.166 368.165 157.734 371.475 158.065C372.866 158.22 374.323 158.308 375.713 158.088C380.238 157.381 383.593 159.059 386.441 162.548C387.809 164.226 389.023 165.551 388.516 167.958C388.14 169.725 388.891 171.138 391.076 171.271C393.659 171.447 395.248 172.905 396.594 175.135C399.927 180.612 409.22 181.539 413.723 176.924C416.063 174.517 418.226 171.955 420.587 169.327C422.287 171.16 422.353 172.75 420.014 174.163C418.248 175.246 416.548 176.394 414.804 177.498C410.346 180.302 405.313 182.378 402.973 187.678C402.51 188.76 401.649 189.665 400.987 190.659C400.589 190.416 400.214 190.173 399.839 189.908Z" fill="#90E4FD"/>
<path d="M203.523 396.334C202.508 396.401 201.58 396.246 200.808 396.533C199.594 396.975 197.806 397.46 197.497 398.366C197.188 399.271 198.093 400.994 198.976 401.811C200.631 403.356 202.64 404.483 204.494 405.808C205.024 406.183 205.509 406.647 206.083 407.11C205.642 407.464 205.487 407.663 205.311 407.707C203.744 408.038 202.154 408.347 200.565 408.656C201.36 409.981 202.022 411.416 203.015 412.587C204.45 414.287 205.178 415.811 205.068 418.328C204.913 421.552 205.752 425.041 206.944 428.089C208.975 433.19 209.416 439.284 214.758 442.641C215.001 442.796 215.089 443.171 214.89 444.165C213.522 443.48 211.977 443.016 210.807 442.089C209.549 441.095 208.622 439.682 207.606 438.423C206.503 437.054 205.686 434.537 203.545 435.972C202.817 436.458 203.059 439.594 203.854 440.896C205.222 443.127 207.187 445.18 209.284 446.748C212.043 448.824 215.288 450.237 218.157 452.181C219.371 452.998 220.188 454.389 221.203 455.515C221.027 455.736 220.872 455.935 220.696 456.155C215.906 455.824 211.072 455.802 206.37 454.963C204.671 454.654 203.413 452.269 201.823 450.988C200.808 450.171 199.572 449.619 198.424 448.934C197.961 450.083 197.475 451.253 196.989 452.445C194.76 451.717 195.135 446.991 191.581 448.139C189.374 448.868 187.476 450.546 185.18 451.96C182.046 448.117 184.452 444.01 186.328 440.631C188.094 437.452 189.286 434.515 189.065 430.915C188.999 429.811 189.816 428.685 190.014 427.515C190.323 425.903 191.206 423.562 190.478 422.767C188.403 420.514 185.71 418.814 183.105 417.114C182.841 416.937 181.229 418.13 180.92 418.924C179.905 421.619 178.249 421.486 175.998 420.647C172.599 419.388 169.133 418.24 165.646 417.268C163.792 416.76 162.931 415.921 162.865 413.934C162.732 410.644 160.679 408.612 157.479 408.126C157.369 408.104 157.258 408.104 157.148 408.104C151.674 407.905 147.745 405.741 146.398 399.978C146.222 399.183 145.14 398.565 144.39 397.968C143.794 397.505 142.624 397.306 142.514 396.82C141.52 392.713 138.982 393.574 135.98 394.236C134.501 394.568 132.713 393.464 130.815 392.934C161.739 383.814 192.376 374.782 223.344 365.662C225.397 371.425 227.45 376.902 229.304 382.422C232.615 392.271 235.837 402.164 239.06 412.057C241.069 418.24 243.166 424.401 244.931 430.65C245.881 433.985 247.889 434.758 250.781 433.852C256.873 431.931 262.899 429.855 268.969 427.868C269.565 427.669 270.205 427.581 270.911 427.404C271.264 429.347 271.662 431.136 271.86 432.925C271.949 433.742 271.927 435.133 271.485 435.354C267.931 437.142 268.704 440.654 267.976 443.568C267.953 443.679 267.953 443.789 267.931 443.9C267.335 448.25 266.342 452.092 261.199 453.528C259.124 454.102 257.601 456.442 255.615 457.591C254.312 458.364 252.635 458.452 251.112 458.849C251.002 457.789 250.67 456.707 250.803 455.692C251.222 452.468 250.361 451.452 244.667 449.464C247.889 445.821 244.358 442.95 243.541 439.704C243.453 439.373 241.312 439.042 240.561 439.483C238.575 440.631 236.985 442.464 234.955 443.502C233.917 444.032 232.041 443.811 231.004 443.193C228.752 441.868 226.368 440.366 224.801 438.357C222.55 435.398 224.051 432.218 227.582 431.423C229.171 431.07 230.783 430.805 232.306 430.253C233.1 429.966 234.425 428.95 234.314 428.663C233.961 427.625 233.056 425.925 232.46 425.969C227.317 426.344 224.492 422.745 221.424 419.675C224.624 416.738 224.602 416.628 220.541 411.836C220.784 408.148 221.468 405.035 221.093 402.054C220.673 398.609 219.504 398.388 216.634 400.397C214.714 396.356 217.804 389.069 221.998 387.678C222.925 387.369 223.874 386.993 224.624 386.419C225.728 385.536 226.677 384.454 227.693 383.438C226.501 382.776 225.309 382.113 223.896 381.318C224.029 381.097 224.58 380.479 224.779 379.772C225.176 378.403 225.375 376.968 225.662 375.555C224.36 375.334 223.057 375.113 221.336 374.804C221.181 374.384 221.049 373.302 220.453 372.706C219.923 372.198 218.621 371.779 218.069 372.088C214.405 374.164 213.213 377.167 213.787 381.561C213.919 382.599 213.411 383.725 213.147 384.984C210.873 384.255 208.224 381.031 207.893 386.088C207.871 386.265 206.966 386.309 206.569 386.574C205.929 387.015 205.002 387.523 204.869 388.142C204.317 390.814 203.964 393.53 203.523 396.334Z" fill="#90E4FD"/>
<path d="M287.356 303.853C288.106 307.298 289.32 310.61 289.408 313.945C289.519 318.516 289.872 323.065 288.526 327.746C287.532 331.169 289.055 335.254 288.923 339.03C288.79 342.961 288.128 346.892 287.532 350.778C287.422 351.507 286.671 352.567 286.053 352.677C282.787 353.296 283.36 355.305 283.868 357.58C284.707 361.378 285.038 364.955 281.043 367.693C279.807 368.532 279.564 371.028 279.122 372.816C277.732 378.337 276.474 383.902 275.083 389.4C274.907 390.063 274.2 390.571 273.052 391.984C273.052 388.959 273.03 386.861 273.052 384.741C273.097 382.709 272.258 381.429 270.139 381.164C269.609 381.097 269.057 380.722 268.572 380.81C262.237 382.047 256.63 379.154 250.869 377.498C243.982 375.51 238.464 370.233 239.435 361.356C240.054 355.614 242.371 352.721 247.029 350.712C249.545 349.63 251.024 347.907 251.068 345.015C251.134 340.068 254.136 336.645 257.315 333.333C258.97 331.611 260.89 330.087 262.281 328.188C262.855 327.415 262.833 325.207 262.237 324.743C256.807 320.636 251.2 316.771 245.66 312.819C244.799 312.2 244.093 311.361 243.276 310.655C242.305 309.815 241.422 308.778 240.296 308.225C235.661 305.929 234.204 301.689 236.411 296.963C237.758 294.071 238.862 291.222 235.529 288.594C233.697 287.159 233.674 285.436 234.977 282.963C236.963 279.231 237.868 274.903 239.259 270.84C240.054 268.499 240.76 266.114 241.819 263.906C242.15 263.2 243.651 262.493 244.424 262.67C255.041 265.165 265.614 267.815 276.209 270.42C279.078 271.127 279.785 272.872 279.277 275.764C278.35 281.042 276.805 285.944 274.112 290.692C272.655 293.254 272.501 297.008 272.898 300.077C273.428 304.14 275.701 305.311 279.917 304.847C282.169 304.604 284.398 304.251 287.356 303.853Z" fill="#90E4FD"/>
<path d="M288.57 260.859C290.887 257.348 292.565 254.985 294.022 252.49C294.441 251.783 294.595 250.215 294.154 249.818C290.048 246.196 290.181 240.786 288.592 236.237C285.965 228.751 284.464 220.846 282.676 213.073C281.131 206.337 281.263 206.337 288.04 204.394C292.19 203.202 296.295 201.855 300.467 200.773C301.703 200.441 303.182 201.038 304.418 200.729C306.184 200.309 307.883 199.536 309.517 198.719C310.709 198.123 311.702 197.041 312.916 196.555C315.697 195.451 318.567 194.545 321.414 193.596C327.948 191.454 334.503 189.4 340.993 187.148C343.465 186.309 344.149 187.479 344.855 189.511C347.283 196.643 349.954 203.665 352.36 210.798C353.177 213.227 353.662 215.811 353.949 218.372C354.038 219.101 353.111 220.205 352.36 220.691C349.557 222.502 346.511 223.981 343.752 225.858C341.412 227.448 339.315 229.325 336.181 229.082C335.496 229.038 334.724 229.436 334.062 229.789C329.36 232.218 324.857 235.133 319.957 237.01C315.521 238.71 312.011 240.168 308.921 244.628C304.639 250.811 298.017 255.404 292.278 260.528C291.638 261.124 290.181 260.77 288.57 260.859Z" fill="#90E4FD"/>
<path d="M77.5312 431.666C75.8757 423.849 74.2644 416.186 72.6531 408.568C88.5455 404.262 104.173 400.044 119.801 395.804C116.6 398.079 113.863 400.353 113.377 404.681C113.135 406.801 107.02 406.934 104.99 405.322C103.82 404.394 102.098 403.93 100.575 403.798C100.178 403.754 99.6702 405.83 99.1184 406.867C97.9044 409.142 96.6462 411.416 95.2998 413.625C95.0791 413.978 94.1741 414.11 93.6223 414.022C90.6424 413.603 89.009 415.237 87.7067 417.599C84.9697 422.59 82.9169 428.067 77.5312 431.666Z" fill="#90E4FD"/>
<path d="M347.328 185.823C351.897 183.813 355.826 182.091 359.468 180.501C361.344 182.864 363.066 185.05 364.787 187.214C364.853 187.302 364.92 187.413 364.942 187.501C365.229 190.394 366.134 193.397 365.604 196.135C364.92 199.602 365.714 202.561 366.73 205.631C368.518 211.041 368.12 212.256 363.507 215.855C361.807 217.18 360.086 218.461 358.695 219.521C354.899 208.259 351.146 197.129 347.328 185.823Z" fill="#D3D3D3"/>
<path d="M341.986 251.098C344.502 248.471 347.018 245.865 349.535 243.237C349.645 243.348 349.733 243.436 349.844 243.546C347.372 246.24 344.899 248.912 342.449 251.606C342.295 251.452 342.14 251.275 341.986 251.098Z" fill="#1BC8FF"/>
</svg>
